<?xml version="1.0" encoding="UTF-8" standalone="no"?>
<!DOCTYPE svg PUBLIC "-//W3C//DTD SVG 1.1//EN"
 "http://www.w3.org/Graphics/SVG/1.1/DTD/svg11.dtd">
<!-- Generated by graphviz version 2.46.0 (20210118.1747)
 -->
<!-- Title: dependency&#45;cruiser output Pages: 1 -->
<svg width="887pt" height="1650pt"
 viewBox="0.00 0.00 886.50 1649.54" xmlns="http://www.w3.org/2000/svg" xmlns:xlink="http://www.w3.org/1999/xlink">
<g id="graph0" class="graph" transform="scale(1 1) rotate(0) translate(4 1645.54)">
<title>dependency&#45;cruiser output</title>
<polygon fill="white" stroke="transparent" points="-4,4 -4,-1645.54 882.5,-1645.54 882.5,4 -4,4"/>
<g id="clust1" class="cluster">
<title>cluster_client</title>
<path fill="#ffffff" stroke="black" stroke-width="2" d="M20,-1433.54C20,-1433.54 755,-1433.54 755,-1433.54 761,-1433.54 767,-1439.54 767,-1445.54 767,-1445.54 767,-1621.54 767,-1621.54 767,-1627.54 761,-1633.54 755,-1633.54 755,-1633.54 20,-1633.54 20,-1633.54 14,-1633.54 8,-1627.54 8,-1621.54 8,-1621.54 8,-1445.54 8,-1445.54 8,-1439.54 14,-1433.54 20,-1433.54"/>
<text text-anchor="middle" x="387.5" y="-1622.34" font-family="Helvetica,sans-Serif" font-weight="bold" font-size="9.00">client</text>
</g>
<g id="clust2" class="cluster">
<title>cluster_client/container</title>
<path fill="#ffffff" stroke="black" stroke-width="2" d="M426.5,-1448.54C426.5,-1448.54 516.5,-1448.54 516.5,-1448.54 522.5,-1448.54 528.5,-1454.54 528.5,-1460.54 528.5,-1460.54 528.5,-1548.54 528.5,-1548.54 528.5,-1554.54 522.5,-1560.54 516.5,-1560.54 516.5,-1560.54 426.5,-1560.54 426.5,-1560.54 420.5,-1560.54 414.5,-1554.54 414.5,-1548.54 414.5,-1548.54 414.5,-1460.54 414.5,-1460.54 414.5,-1454.54 420.5,-1448.54 426.5,-1448.54"/>
<text text-anchor="middle" x="471.5" y="-1549.34" font-family="Helvetica,sans-Serif" font-weight="bold" font-size="9.00">container</text>
</g>
<g id="clust4" class="cluster">
<title>cluster_client/ui</title>
<path fill="#ffffff" stroke="black" stroke-width="2" d="M548.5,-1485.54C548.5,-1485.54 638.5,-1485.54 638.5,-1485.54 644.5,-1485.54 650.5,-1491.54 650.5,-1497.54 650.5,-1497.54 650.5,-1555.54 650.5,-1555.54 650.5,-1561.54 644.5,-1567.54 638.5,-1567.54 638.5,-1567.54 548.5,-1567.54 548.5,-1567.54 542.5,-1567.54 536.5,-1561.54 536.5,-1555.54 536.5,-1555.54 536.5,-1497.54 536.5,-1497.54 536.5,-1491.54 542.5,-1485.54 548.5,-1485.54"/>
<text text-anchor="middle" x="593.5" y="-1556.34" font-family="Helvetica,sans-Serif" font-weight="bold" font-size="9.00">ui</text>
</g>
<g id="clust3" class="cluster">
<title>cluster_client/page</title>
<path fill="#ffffff" stroke="black" stroke-width="2" d="M250,-1441.54C250,-1441.54 319,-1441.54 319,-1441.54 325,-1441.54 331,-1447.54 331,-1453.54 331,-1453.54 331,-1571.54 331,-1571.54 331,-1577.54 325,-1583.54 319,-1583.54 319,-1583.54 250,-1583.54 250,-1583.54 244,-1583.54 238,-1577.54 238,-1571.54 238,-1571.54 238,-1453.54 238,-1453.54 238,-1447.54 244,-1441.54 250,-1441.54"/>
<text text-anchor="middle" x="284.5" y="-1572.34" font-family="Helvetica,sans-Serif" font-weight="bold" font-size="9.00">page</text>
</g>
<g id="clust5" class="cluster">
<title>cluster_common</title>
<path fill="#ffffff" stroke="black" stroke-width="2" d="M694.5,-321.54C694.5,-321.54 858.5,-321.54 858.5,-321.54 864.5,-321.54 870.5,-327.54 870.5,-333.54 870.5,-333.54 870.5,-421.54 870.5,-421.54 870.5,-427.54 864.5,-433.54 858.5,-433.54 858.5,-433.54 694.5,-433.54 694.5,-433.54 688.5,-433.54 682.5,-427.54 682.5,-421.54 682.5,-421.54 682.5,-333.54 682.5,-333.54 682.5,-327.54 688.5,-321.54 694.5,-321.54"/>
<text text-anchor="middle" x="776.5" y="-422.34" font-family="Helvetica,sans-Serif" font-weight="bold" font-size="9.00">common</text>
</g>
<g id="clust6" class="cluster">
<title>cluster_functions</title>
<path fill="#ffffff" stroke="black" stroke-width="2" d="M351,-233.54C351,-233.54 754.5,-233.54 754.5,-233.54 760.5,-233.54 766.5,-239.54 766.5,-245.54 766.5,-245.54 766.5,-301.54 766.5,-301.54 766.5,-307.54 760.5,-313.54 754.5,-313.54 754.5,-313.54 351,-313.54 351,-313.54 345,-313.54 339,-307.54 339,-301.54 339,-301.54 339,-245.54 339,-245.54 339,-239.54 345,-233.54 351,-233.54"/>
<text text-anchor="middle" x="552.75" y="-302.34" font-family="Helvetica,sans-Serif" font-weight="bold" font-size="9.00">functions</text>
</g>
<g id="clust7" class="cluster">
<title>cluster_node_modules</title>
<path fill="#ffffff" stroke="black" stroke-width="2" d="M670.5,-441.54C670.5,-441.54 776.5,-441.54 776.5,-441.54 782.5,-441.54 788.5,-447.54 788.5,-453.54 788.5,-453.54 788.5,-1413.54 788.5,-1413.54 788.5,-1419.54 782.5,-1425.54 776.5,-1425.54 776.5,-1425.54 670.5,-1425.54 670.5,-1425.54 664.5,-1425.54 658.5,-1419.54 658.5,-1413.54 658.5,-1413.54 658.5,-453.54 658.5,-453.54 658.5,-447.54 664.5,-441.54 670.5,-441.54"/>
<text text-anchor="middle" x="723.5" y="-1414.34" font-family="Helvetica,sans-Serif" font-weight="bold" font-size="9.00">node_modules</text>
</g>
<g id="clust25" class="cluster">
<title>cluster_node_modules/unstated&#45;next</title>
<path fill="#ffffff" stroke="black" stroke-width="2" d="M678.5,-1313.54C678.5,-1313.54 768.5,-1313.54 768.5,-1313.54 774.5,-1313.54 780.5,-1319.54 780.5,-1325.54 780.5,-1325.54 780.5,-1387.54 780.5,-1387.54 780.5,-1393.54 774.5,-1399.54 768.5,-1399.54 768.5,-1399.54 678.5,-1399.54 678.5,-1399.54 672.5,-1399.54 666.5,-1393.54 666.5,-1387.54 666.5,-1387.54 666.5,-1325.54 666.5,-1325.54 666.5,-1319.54 672.5,-1313.54 678.5,-1313.54"/>
<text text-anchor="middle" x="723.5" y="-1388.34" font-family="Helvetica,sans-Serif" font-weight="bold" font-size="9.00">unstated&#45;next</text>
</g>
<g id="clust26" class="cluster">
<title>cluster_node_modules/unstated&#45;next/dist</title>
<path fill="#ffffff" stroke="black" stroke-width="2" d="M686.5,-1321.54C686.5,-1321.54 760.5,-1321.54 760.5,-1321.54 766.5,-1321.54 772.5,-1327.54 772.5,-1333.54 772.5,-1333.54 772.5,-1361.54 772.5,-1361.54 772.5,-1367.54 766.5,-1373.54 760.5,-1373.54 760.5,-1373.54 686.5,-1373.54 686.5,-1373.54 680.5,-1373.54 674.5,-1367.54 674.5,-1361.54 674.5,-1361.54 674.5,-1333.54 674.5,-1333.54 674.5,-1327.54 680.5,-1321.54 686.5,-1321.54"/>
<text text-anchor="middle" x="723.5" y="-1362.34" font-family="Helvetica,sans-Serif" font-weight="bold" font-size="9.00">dist</text>
</g>
<g id="clust12" class="cluster">
<title>cluster_node_modules/firebase&#45;admin</title>
<path fill="#ffffff" stroke="black" stroke-width="2" d="M692.5,-757.54C692.5,-757.54 754.5,-757.54 754.5,-757.54 760.5,-757.54 766.5,-763.54 766.5,-769.54 766.5,-769.54 766.5,-831.54 766.5,-831.54 766.5,-837.54 760.5,-843.54 754.5,-843.54 754.5,-843.54 692.5,-843.54 692.5,-843.54 686.5,-843.54 680.5,-837.54 680.5,-831.54 680.5,-831.54 680.5,-769.54 680.5,-769.54 680.5,-763.54 686.5,-757.54 692.5,-757.54"/>
<text text-anchor="middle" x="723.5" y="-832.34" font-family="Helvetica,sans-Serif" font-weight="bold" font-size="9.00">firebase&#45;admin</text>
</g>
<g id="clust13" class="cluster">
<title>cluster_node_modules/firebase&#45;admin/lib</title>
<path fill="#ffffff" stroke="black" stroke-width="2" d="M700.5,-765.54C700.5,-765.54 746.5,-765.54 746.5,-765.54 752.5,-765.54 758.5,-771.54 758.5,-777.54 758.5,-777.54 758.5,-805.54 758.5,-805.54 758.5,-811.54 752.5,-817.54 746.5,-817.54 746.5,-817.54 700.5,-817.54 700.5,-817.54 694.5,-817.54 688.5,-811.54 688.5,-805.54 688.5,-805.54 688.5,-777.54 688.5,-777.54 688.5,-771.54 694.5,-765.54 700.5,-765.54"/>
<text text-anchor="middle" x="723.5" y="-806.34" font-family="Helvetica,sans-Serif" font-weight="bold" font-size="9.00">lib</text>
</g>
<g id="clust8" class="cluster">
<title>cluster_node_modules/@material&#45;ui</title>
<path fill="#ffffff" stroke="black" stroke-width="2" d="M692.5,-1005.54C692.5,-1005.54 754.5,-1005.54 754.5,-1005.54 760.5,-1005.54 766.5,-1011.54 766.5,-1017.54 766.5,-1017.54 766.5,-1139.54 766.5,-1139.54 766.5,-1145.54 760.5,-1151.54 754.5,-1151.54 754.5,-1151.54 692.5,-1151.54 692.5,-1151.54 686.5,-1151.54 680.5,-1145.54 680.5,-1139.54 680.5,-1139.54 680.5,-1017.54 680.5,-1017.54 680.5,-1011.54 686.5,-1005.54 692.5,-1005.54"/>
<text text-anchor="middle" x="723.5" y="-1140.34" font-family="Helvetica,sans-Serif" font-weight="bold" font-size="9.00">@material&#45;ui</text>
</g>
<g id="clust10" class="cluster">
<title>cluster_node_modules/@material&#45;ui/icons</title>
<path fill="#ffffff" stroke="black" stroke-width="2" d="M700.5,-1073.54C700.5,-1073.54 746.5,-1073.54 746.5,-1073.54 752.5,-1073.54 758.5,-1079.54 758.5,-1085.54 758.5,-1085.54 758.5,-1113.54 758.5,-1113.54 758.5,-1119.54 752.5,-1125.54 746.5,-1125.54 746.5,-1125.54 700.5,-1125.54 700.5,-1125.54 694.5,-1125.54 688.5,-1119.54 688.5,-1113.54 688.5,-1113.54 688.5,-1085.54 688.5,-1085.54 688.5,-1079.54 694.5,-1073.54 700.5,-1073.54"/>
<text text-anchor="middle" x="723.5" y="-1114.34" font-family="Helvetica,sans-Serif" font-weight="bold" font-size="9.00">icons</text>
</g>
<g id="clust9" class="cluster">
<title>cluster_node_modules/@material&#45;ui/core</title>
<path fill="#ffffff" stroke="black" stroke-width="2" d="M700.5,-1013.54C700.5,-1013.54 746.5,-1013.54 746.5,-1013.54 752.5,-1013.54 758.5,-1019.54 758.5,-1025.54 758.5,-1025.54 758.5,-1053.54 758.5,-1053.54 758.5,-1059.54 752.5,-1065.54 746.5,-1065.54 746.5,-1065.54 700.5,-1065.54 700.5,-1065.54 694.5,-1065.54 688.5,-1059.54 688.5,-1053.54 688.5,-1053.54 688.5,-1025.54 688.5,-1025.54 688.5,-1019.54 694.5,-1013.54 700.5,-1013.54"/>
<text text-anchor="middle" x="723.5" y="-1054.34" font-family="Helvetica,sans-Serif" font-weight="bold" font-size="9.00">core</text>
</g>
<g id="clust14" class="cluster">
<title>cluster_node_modules/firebase&#45;functions</title>
<path fill="#ffffff" stroke="black" stroke-width="2" d="M688.5,-663.54C688.5,-663.54 759.5,-663.54 759.5,-663.54 765.5,-663.54 771.5,-669.54 771.5,-675.54 771.5,-675.54 771.5,-737.54 771.5,-737.54 771.5,-743.54 765.5,-749.54 759.5,-749.54 759.5,-749.54 688.5,-749.54 688.5,-749.54 682.5,-749.54 676.5,-743.54 676.5,-737.54 676.5,-737.54 676.5,-675.54 676.5,-675.54 676.5,-669.54 682.5,-663.54 688.5,-663.54"/>
<text text-anchor="middle" x="724" y="-738.34" font-family="Helvetica,sans-Serif" font-weight="bold" font-size="9.00">firebase&#45;functions</text>
</g>
<g id="clust15" class="cluster">
<title>cluster_node_modules/firebase&#45;functions/lib</title>
<path fill="#ffffff" stroke="black" stroke-width="2" d="M700.5,-671.54C700.5,-671.54 746.5,-671.54 746.5,-671.54 752.5,-671.54 758.5,-677.54 758.5,-683.54 758.5,-683.54 758.5,-711.54 758.5,-711.54 758.5,-717.54 752.5,-723.54 746.5,-723.54 746.5,-723.54 700.5,-723.54 700.5,-723.54 694.5,-723.54 688.5,-717.54 688.5,-711.54 688.5,-711.54 688.5,-683.54 688.5,-683.54 688.5,-677.54 694.5,-671.54 700.5,-671.54"/>
<text text-anchor="middle" x="723.5" y="-712.34" font-family="Helvetica,sans-Serif" font-weight="bold" font-size="9.00">lib</text>
</g>
<g id="clust20" class="cluster">
<title>cluster_node_modules/jsonwebtoken</title>
<path fill="#ffffff" stroke="black" stroke-width="2" d="M697.5,-449.54C697.5,-449.54 750.5,-449.54 750.5,-449.54 756.5,-449.54 762.5,-455.54 762.5,-461.54 762.5,-461.54 762.5,-489.54 762.5,-489.54 762.5,-495.54 756.5,-501.54 750.5,-501.54 750.5,-501.54 697.5,-501.54 697.5,-501.54 691.5,-501.54 685.5,-495.54 685.5,-489.54 685.5,-489.54 685.5,-461.54 685.5,-461.54 685.5,-455.54 691.5,-449.54 697.5,-449.54"/>
<text text-anchor="middle" x="724" y="-490.34" font-family="Helvetica,sans-Serif" font-weight="bold" font-size="9.00">jsonwebtoken</text>
</g>
<g id="clust11" class="cluster">
<title>cluster_node_modules/axios</title>
<path fill="#ffffff" stroke="black" stroke-width="2" d="M700.5,-603.54C700.5,-603.54 746.5,-603.54 746.5,-603.54 752.5,-603.54 758.5,-609.54 758.5,-615.54 758.5,-615.54 758.5,-643.54 758.5,-643.54 758.5,-649.54 752.5,-655.54 746.5,-655.54 746.5,-655.54 700.5,-655.54 700.5,-655.54 694.5,-655.54 688.5,-649.54 688.5,-643.54 688.5,-643.54 688.5,-615.54 688.5,-615.54 688.5,-609.54 694.5,-603.54 700.5,-603.54"/>
<text text-anchor="middle" x="723.5" y="-644.34" font-family="Helvetica,sans-Serif" font-weight="bold" font-size="9.00">axios</text>
</g>
<g id="clust16" class="cluster">
<title>cluster_node_modules/fs&#45;extra</title>
<path fill="#ffffff" stroke="black" stroke-width="2" d="M692.5,-851.54C692.5,-851.54 754.5,-851.54 754.5,-851.54 760.5,-851.54 766.5,-857.54 766.5,-863.54 766.5,-863.54 766.5,-925.54 766.5,-925.54 766.5,-931.54 760.5,-937.54 754.5,-937.54 754.5,-937.54 692.5,-937.54 692.5,-937.54 686.5,-937.54 680.5,-931.54 680.5,-925.54 680.5,-925.54 680.5,-863.54 680.5,-863.54 680.5,-857.54 686.5,-851.54 692.5,-851.54"/>
<text text-anchor="middle" x="723.5" y="-926.34" font-family="Helvetica,sans-Serif" font-weight="bold" font-size="9.00">fs&#45;extra</text>
</g>
<g id="clust17" class="cluster">
<title>cluster_node_modules/fs&#45;extra/lib</title>
<path fill="#ffffff" stroke="black" stroke-width="2" d="M700.5,-859.54C700.5,-859.54 746.5,-859.54 746.5,-859.54 752.5,-859.54 758.5,-865.54 758.5,-871.54 758.5,-871.54 758.5,-899.54 758.5,-899.54 758.5,-905.54 752.5,-911.54 746.5,-911.54 746.5,-911.54 700.5,-911.54 700.5,-911.54 694.5,-911.54 688.5,-905.54 688.5,-899.54 688.5,-899.54 688.5,-871.54 688.5,-871.54 688.5,-865.54 694.5,-859.54 700.5,-859.54"/>
<text text-anchor="middle" x="723.5" y="-900.34" font-family="Helvetica,sans-Serif" font-weight="bold" font-size="9.00">lib</text>
</g>
<g id="clust18" class="cluster">
<title>cluster_node_modules/jimp</title>
<path fill="#ffffff" stroke="black" stroke-width="2" d="M692.5,-509.54C692.5,-509.54 754.5,-509.54 754.5,-509.54 760.5,-509.54 766.5,-515.54 766.5,-521.54 766.5,-521.54 766.5,-583.54 766.5,-583.54 766.5,-589.54 760.5,-595.54 754.5,-595.54 754.5,-595.54 692.5,-595.54 692.5,-595.54 686.5,-595.54 680.5,-589.54 680.5,-583.54 680.5,-583.54 680.5,-521.54 680.5,-521.54 680.5,-515.54 686.5,-509.54 692.5,-509.54"/>
<text text-anchor="middle" x="723.5" y="-584.34" font-family="Helvetica,sans-Serif" font-weight="bold" font-size="9.00">jimp</text>
</g>
<g id="clust19" class="cluster">
<title>cluster_node_modules/jimp/dist</title>
<path fill="#ffffff" stroke="black" stroke-width="2" d="M700.5,-517.54C700.5,-517.54 746.5,-517.54 746.5,-517.54 752.5,-517.54 758.5,-523.54 758.5,-529.54 758.5,-529.54 758.5,-557.54 758.5,-557.54 758.5,-563.54 752.5,-569.54 746.5,-569.54 746.5,-569.54 700.5,-569.54 700.5,-569.54 694.5,-569.54 688.5,-563.54 688.5,-557.54 688.5,-557.54 688.5,-529.54 688.5,-529.54 688.5,-523.54 694.5,-517.54 700.5,-517.54"/>
<text text-anchor="middle" x="723.5" y="-558.34" font-family="Helvetica,sans-Serif" font-weight="bold" font-size="9.00">dist</text>
</g>
<g id="clust23" class="cluster">
<title>cluster_node_modules/react&#45;dom</title>
<path fill="#ffffff" stroke="black" stroke-width="2" d="M700.5,-945.54C700.5,-945.54 746.5,-945.54 746.5,-945.54 752.5,-945.54 758.5,-951.54 758.5,-957.54 758.5,-957.54 758.5,-985.54 758.5,-985.54 758.5,-991.54 752.5,-997.54 746.5,-997.54 746.5,-997.54 700.5,-997.54 700.5,-997.54 694.5,-997.54 688.5,-991.54 688.5,-985.54 688.5,-985.54 688.5,-957.54 688.5,-957.54 688.5,-951.54 694.5,-945.54 700.5,-945.54"/>
<text text-anchor="middle" x="723.5" y="-986.34" font-family="Helvetica,sans-Serif" font-weight="bold" font-size="9.00">react&#45;dom</text>
</g>
<g id="clust21" class="cluster">
<title>cluster_node_modules/notistack</title>
<path fill="#ffffff" stroke="black" stroke-width="2" d="M692.5,-1219.54C692.5,-1219.54 754.5,-1219.54 754.5,-1219.54 760.5,-1219.54 766.5,-1225.54 766.5,-1231.54 766.5,-1231.54 766.5,-1293.54 766.5,-1293.54 766.5,-1299.54 760.5,-1305.54 754.5,-1305.54 754.5,-1305.54 692.5,-1305.54 692.5,-1305.54 686.5,-1305.54 680.5,-1299.54 680.5,-1293.54 680.5,-1293.54 680.5,-1231.54 680.5,-1231.54 680.5,-1225.54 686.5,-1219.54 692.5,-1219.54"/>
<text text-anchor="middle" x="723.5" y="-1294.34" font-family="Helvetica,sans-Serif" font-weight="bold" font-size="9.00">notistack</text>
</g>
<g id="clust22" class="cluster">
<title>cluster_node_modules/notistack/dist</title>
<path fill="#ffffff" stroke="black" stroke-width="2" d="M700.5,-1227.54C700.5,-1227.54 746.5,-1227.54 746.5,-1227.54 752.5,-1227.54 758.5,-1233.54 758.5,-1239.54 758.5,-1239.54 758.5,-1267.54 758.5,-1267.54 758.5,-1273.54 752.5,-1279.54 746.5,-1279.54 746.5,-1279.54 700.5,-1279.54 700.5,-1279.54 694.5,-1279.54 688.5,-1273.54 688.5,-1267.54 688.5,-1267.54 688.5,-1239.54 688.5,-1239.54 688.5,-1233.54 694.5,-1227.54 700.5,-1227.54"/>
<text text-anchor="middle" x="723.5" y="-1268.34" font-family="Helvetica,sans-Serif" font-weight="bold" font-size="9.00">dist</text>
</g>
<g id="clust24" class="cluster">
<title>cluster_node_modules/react</title>
<path fill="#ffffff" stroke="black" stroke-width="2" d="M700.5,-1159.54C700.5,-1159.54 746.5,-1159.54 746.5,-1159.54 752.5,-1159.54 758.5,-1165.54 758.5,-1171.54 758.5,-1171.54 758.5,-1199.54 758.5,-1199.54 758.5,-1205.54 752.5,-1211.54 746.5,-1211.54 746.5,-1211.54 700.5,-1211.54 700.5,-1211.54 694.5,-1211.54 688.5,-1205.54 688.5,-1199.54 688.5,-1199.54 688.5,-1171.54 688.5,-1171.54 688.5,-1165.54 694.5,-1159.54 700.5,-1159.54"/>
<text text-anchor="middle" x="723.5" y="-1200.34" font-family="Helvetica,sans-Serif" font-weight="bold" font-size="9.00">react</text>
</g>
<!-- client/App.tsx -->
<g id="node1" class="node">
<title>client/App.tsx</title>
<g id="a_node1"><a xlink:href="client/App.tsx" xlink:title="App.tsx">
<path fill="#bbfeff" stroke="black" d="M224,-1482.54C224,-1482.54 182,-1482.54 182,-1482.54 179,-1482.54 176,-1479.54 176,-1476.54 176,-1476.54 176,-1470.54 176,-1470.54 176,-1467.54 179,-1464.54 182,-1464.54 182,-1464.54 224,-1464.54 224,-1464.54 227,-1464.54 230,-1467.54 230,-1470.54 230,-1470.54 230,-1476.54 230,-1476.54 230,-1479.54 227,-1482.54 224,-1482.54"/>
<text text-anchor="middle" x="203" y="-1471.34" font-family="Helvetica,sans-Serif" font-size="9.00">App.tsx</text>
</a>
</g>
</g>
<!-- client/page/AdminTop.tsx -->
<g id="node2" class="node">
<title>client/page/AdminTop.tsx</title>
<g id="a_node2"><a xlink:href="client/page/AdminTop.tsx" xlink:title="AdminTop.tsx">
<path fill="#bbfeff" stroke="black" d="M314.5,-1527.54C314.5,-1527.54 254.5,-1527.54 254.5,-1527.54 251.5,-1527.54 248.5,-1524.54 248.5,-1521.54 248.5,-1521.54 248.5,-1515.54 248.5,-1515.54 248.5,-1512.54 251.5,-1509.54 254.5,-1509.54 254.5,-1509.54 314.5,-1509.54 314.5,-1509.54 317.5,-1509.54 320.5,-1512.54 320.5,-1515.54 320.5,-1515.54 320.5,-1521.54 320.5,-1521.54 320.5,-1524.54 317.5,-1527.54 314.5,-1527.54"/>
<text text-anchor="middle" x="284.5" y="-1516.34" font-family="Helvetica,sans-Serif" font-size="9.00">AdminTop.tsx</text>
</a>
</g>
</g>
<!-- client/App.tsx&#45;&gt;client/page/AdminTop.tsx -->
<g id="edge1" class="edge">
<title>client/App.tsx&#45;&gt;client/page/AdminTop.tsx</title>
<path fill="none" stroke="#000000" stroke-width="2" stroke-opacity="0.200000" d="M212.45,-1482.78C218.9,-1489.35 228.3,-1497.98 238,-1503.54 240.19,-1504.79 242.5,-1505.96 244.88,-1507.05"/>
<polygon fill="#000000" fill-opacity="0.200000" stroke="#000000" stroke-width="2" stroke-opacity="0.200000" points="244.15,-1509.02 250.5,-1509.43 245.79,-1505.16 244.15,-1509.02"/>
</g>
<!-- client/page/Login.tsx -->
<g id="node3" class="node">
<title>client/page/Login.tsx</title>
<g id="a_node3"><a xlink:href="client/page/Login.tsx" xlink:title="Login.tsx">
<path fill="#bbfeff" stroke="black" d="M305.5,-1497.54C305.5,-1497.54 263.5,-1497.54 263.5,-1497.54 260.5,-1497.54 257.5,-1494.54 257.5,-1491.54 257.5,-1491.54 257.5,-1485.54 257.5,-1485.54 257.5,-1482.54 260.5,-1479.54 263.5,-1479.54 263.5,-1479.54 305.5,-1479.54 305.5,-1479.54 308.5,-1479.54 311.5,-1482.54 311.5,-1485.54 311.5,-1485.54 311.5,-1491.54 311.5,-1491.54 311.5,-1494.54 308.5,-1497.54 305.5,-1497.54"/>
<text text-anchor="middle" x="284.5" y="-1486.34" font-family="Helvetica,sans-Serif" font-size="9.00">Login.tsx</text>
</a>
</g>
</g>
<!-- client/App.tsx&#45;&gt;client/page/Login.tsx -->
<g id="edge2" class="edge">
<title>client/App.tsx&#45;&gt;client/page/Login.tsx</title>
<path fill="none" stroke="#000000" stroke-width="2" stroke-opacity="0.200000" d="M230.03,-1478.45C236.76,-1479.72 244.08,-1481.1 251.09,-1482.42"/>
<polygon fill="#000000" fill-opacity="0.200000" stroke="#000000" stroke-width="2" stroke-opacity="0.200000" points="251.12,-1484.56 257.41,-1483.61 251.9,-1480.44 251.12,-1484.56"/>
</g>
<!-- client/page/NewProject.tsx -->
<g id="node4" class="node">
<title>client/page/NewProject.tsx</title>
<g id="a_node4"><a xlink:href="client/page/NewProject.tsx" xlink:title="NewProject.tsx">
<path fill="#bbfeff" stroke="black" d="M317,-1467.54C317,-1467.54 252,-1467.54 252,-1467.54 249,-1467.54 246,-1464.54 246,-1461.54 246,-1461.54 246,-1455.54 246,-1455.54 246,-1452.54 249,-1449.54 252,-1449.54 252,-1449.54 317,-1449.54 317,-1449.54 320,-1449.54 323,-1452.54 323,-1455.54 323,-1455.54 323,-1461.54 323,-1461.54 323,-1464.54 320,-1467.54 317,-1467.54"/>
<text text-anchor="middle" x="284.5" y="-1456.34" font-family="Helvetica,sans-Serif" font-size="9.00">NewProject.tsx</text>
</a>
</g>
</g>
<!-- client/App.tsx&#45;&gt;client/page/NewProject.tsx -->
<g id="edge3" class="edge">
<title>client/App.tsx&#45;&gt;client/page/NewProject.tsx</title>
<path fill="none" stroke="#000000" stroke-width="2" stroke-opacity="0.200000" d="M230.03,-1468.62C233.2,-1468.03 236.5,-1467.4 239.84,-1466.77"/>
<polygon fill="#000000" fill-opacity="0.200000" stroke="#000000" stroke-width="2" stroke-opacity="0.200000" points="240.37,-1468.81 245.87,-1465.64 239.59,-1464.68 240.37,-1468.81"/>
</g>
<!-- client/page/Setting.tsx -->
<g id="node5" class="node">
<title>client/page/Setting.tsx</title>
<g id="a_node5"><a xlink:href="client/page/Setting.tsx" xlink:title="Setting.tsx">
<path fill="#bbfeff" stroke="black" d="M308,-1557.54C308,-1557.54 261,-1557.54 261,-1557.54 258,-1557.54 255,-1554.54 255,-1551.54 255,-1551.54 255,-1545.54 255,-1545.54 255,-1542.54 258,-1539.54 261,-1539.54 261,-1539.54 308,-1539.54 308,-1539.54 311,-1539.54 314,-1542.54 314,-1545.54 314,-1545.54 314,-1551.54 314,-1551.54 314,-1554.54 311,-1557.54 308,-1557.54"/>
<text text-anchor="middle" x="284.5" y="-1546.34" font-family="Helvetica,sans-Serif" font-size="9.00">Setting.tsx</text>
</a>
</g>
</g>
<!-- client/App.tsx&#45;&gt;client/page/Setting.tsx -->
<g id="edge4" class="edge">
<title>client/App.tsx&#45;&gt;client/page/Setting.tsx</title>
<path fill="none" stroke="#000000" stroke-width="2" stroke-opacity="0.200000" d="M206.8,-1482.65C211.3,-1495.76 221.34,-1519.87 238,-1533.54 241.36,-1536.29 245.24,-1538.55 249.3,-1540.39"/>
<polygon fill="#000000" fill-opacity="0.200000" stroke="#000000" stroke-width="2" stroke-opacity="0.200000" points="248.55,-1542.36 254.9,-1542.66 250.13,-1538.46 248.55,-1542.36"/>
</g>
<!-- client/state.ts -->
<g id="node6" class="node">
<title>client/state.ts</title>
<g id="a_node6"><a xlink:href="client/state.ts" xlink:title="state.ts">
<path fill="#ddfeff" stroke="black" d="M614.5,-1593.54C614.5,-1593.54 572.5,-1593.54 572.5,-1593.54 569.5,-1593.54 566.5,-1590.54 566.5,-1587.54 566.5,-1587.54 566.5,-1581.54 566.5,-1581.54 566.5,-1578.54 569.5,-1575.54 572.5,-1575.54 572.5,-1575.54 614.5,-1575.54 614.5,-1575.54 617.5,-1575.54 620.5,-1578.54 620.5,-1581.54 620.5,-1581.54 620.5,-1587.54 620.5,-1587.54 620.5,-1590.54 617.5,-1593.54 614.5,-1593.54"/>
<text text-anchor="middle" x="593.5" y="-1582.34" font-family="Helvetica,sans-Serif" font-size="9.00">state.ts</text>
</a>
</g>
</g>
<!-- client/App.tsx&#45;&gt;client/state.ts -->
<g id="edge5" class="edge">
<title>client/App.tsx&#45;&gt;client/state.ts</title>
<path fill="none" stroke="#000000" stroke-width="2" stroke-opacity="0.200000" d="M203.49,-1482.54C202.78,-1504.65 204.46,-1561.6 238,-1586.54 263.45,-1605.46 477.75,-1592.61 560.28,-1586.89"/>
<polygon fill="#000000" fill-opacity="0.200000" stroke="#000000" stroke-width="2" stroke-opacity="0.200000" points="560.62,-1588.97 566.46,-1586.46 560.32,-1584.78 560.62,-1588.97"/>
</g>
<!-- node_modules/@material&#45;ui/core/index.js -->
<g id="node7" class="node">
<title>node_modules/@material&#45;ui/core/index.js</title>
<g id="a_node7"><a xlink:href="node_modules/@material-ui/core/index.js" xlink:title="index.js">
<polygon fill="#c40b0a" fill-opacity="0.101961" stroke="black" points="750.5,-1039.54 749,-1041.54 738.5,-1041.54 737,-1039.54 696.5,-1039.54 696.5,-1021.54 750.5,-1021.54 750.5,-1039.54"/>
<text text-anchor="middle" x="723.5" y="-1028.34" font-family="Helvetica,sans-Serif" font-size="9.00" fill="#c40b0a">index.js</text>
</a>
</g>
</g>
<!-- client/App.tsx&#45;&gt;node_modules/@material&#45;ui/core/index.js -->
<g id="edge6" class="edge">
<title>client/App.tsx&#45;&gt;node_modules/@material&#45;ui/core/index.js</title>
<path fill="none" stroke="#000000" stroke-opacity="0.200000" d="M205.04,-1464.5C212.2,-1403.8 256.6,-1056.01 339,-999.54 452.93,-921.46 632.99,-989.72 698.04,-1018.87"/>
<polygon fill="#000000" fill-opacity="0.200000" stroke="#000000" stroke-opacity="0.200000" points="697.28,-1020.83 703.61,-1021.4 699.01,-1017.01 697.28,-1020.83"/>
</g>
<!-- node_modules/react/index.js -->
<g id="node8" class="node">
<title>node_modules/react/index.js</title>
<g id="a_node8"><a xlink:href="node_modules/react/index.js" xlink:title="index.js">
<polygon fill="#c40b0a" fill-opacity="0.101961" stroke="black" points="750.5,-1185.54 749,-1187.54 738.5,-1187.54 737,-1185.54 696.5,-1185.54 696.5,-1167.54 750.5,-1167.54 750.5,-1185.54"/>
<text text-anchor="middle" x="723.5" y="-1174.34" font-family="Helvetica,sans-Serif" font-size="9.00" fill="#c40b0a">index.js</text>
</a>
</g>
</g>
<!-- client/App.tsx&#45;&gt;node_modules/react/index.js -->
<g id="edge7" class="edge">
<title>client/App.tsx&#45;&gt;node_modules/react/index.js</title>
<path fill="none" stroke="#000000" stroke-opacity="0.200000" d="M207.36,-1464.31C219.76,-1431.45 266.01,-1318.81 339,-1255.54 441.71,-1166.5 617.95,-1168.36 690.18,-1173.44"/>
<polygon fill="#000000" fill-opacity="0.200000" stroke="#000000" stroke-opacity="0.200000" points="690.3,-1175.55 696.44,-1173.9 690.61,-1171.36 690.3,-1175.55"/>
</g>
<!-- client/page/AdminTop.tsx&#45;&gt;node_modules/@material&#45;ui/core/index.js -->
<g id="edge31" class="edge">
<title>client/page/AdminTop.tsx&#45;&gt;node_modules/@material&#45;ui/core/index.js</title>
<path fill="none" stroke="#000000" stroke-opacity="0.200000" d="M320.77,-1511.99C324.75,-1509.89 328.32,-1507.14 331,-1503.54 351.1,-1476.51 320.26,-1228.52 339,-1200.54 360.31,-1168.7 605.67,-1074.35 692.38,-1041.76"/>
<polygon fill="#000000" fill-opacity="0.200000" stroke="#000000" stroke-opacity="0.200000" points="693.22,-1043.69 698.1,-1039.61 691.74,-1039.75 693.22,-1043.69"/>
</g>
<!-- client/page/AdminTop.tsx&#45;&gt;node_modules/react/index.js -->
<g id="edge33" class="edge">
<title>client/page/AdminTop.tsx&#45;&gt;node_modules/react/index.js</title>
<path fill="none" stroke="#000000" stroke-opacity="0.200000" d="M320.68,-1511.92C324.67,-1509.83 328.27,-1507.1 331,-1503.54 350.89,-1477.56 319.46,-1382.78 339,-1356.54 360.97,-1327.04 624.04,-1270.08 650.5,-1244.54 657.39,-1237.89 652.68,-1232.14 658.5,-1224.54 669.84,-1209.74 686.87,-1197.27 700.52,-1188.75"/>
<polygon fill="#000000" fill-opacity="0.200000" stroke="#000000" stroke-opacity="0.200000" points="701.72,-1190.48 705.75,-1185.57 699.53,-1186.89 701.72,-1190.48"/>
</g>
<!-- client/container.ts -->
<g id="node14" class="node">
<title>client/container.ts</title>
<g id="a_node14"><a xlink:href="client/container.ts" xlink:title="container.ts">
<path fill="#ddfeff" stroke="black" d="M400.5,-1504.54C400.5,-1504.54 347.5,-1504.54 347.5,-1504.54 344.5,-1504.54 341.5,-1501.54 341.5,-1498.54 341.5,-1498.54 341.5,-1492.54 341.5,-1492.54 341.5,-1489.54 344.5,-1486.54 347.5,-1486.54 347.5,-1486.54 400.5,-1486.54 400.5,-1486.54 403.5,-1486.54 406.5,-1489.54 406.5,-1492.54 406.5,-1492.54 406.5,-1498.54 406.5,-1498.54 406.5,-1501.54 403.5,-1504.54 400.5,-1504.54"/>
<text text-anchor="middle" x="374" y="-1493.34" font-family="Helvetica,sans-Serif" font-size="9.00">container.ts</text>
</a>
</g>
</g>
<!-- client/page/AdminTop.tsx&#45;&gt;client/container.ts -->
<g id="edge30" class="edge">
<title>client/page/AdminTop.tsx&#45;&gt;client/container.ts</title>
<path fill="none" stroke="#000000" stroke-width="2" stroke-opacity="0.200000" d="M319.83,-1509.51C324.92,-1508.17 330.2,-1506.79 335.35,-1505.43"/>
<polygon fill="#000000" fill-opacity="0.200000" stroke="#000000" stroke-width="2" stroke-opacity="0.200000" points="336.07,-1507.42 341.34,-1503.86 335,-1503.35 336.07,-1507.42"/>
</g>
<!-- node_modules/@material&#45;ui/icons/index.js -->
<g id="node24" class="node">
<title>node_modules/@material&#45;ui/icons/index.js</title>
<g id="a_node24"><a xlink:href="node_modules/@material-ui/icons/index.js" xlink:title="index.js">
<polygon fill="#c40b0a" fill-opacity="0.101961" stroke="black" points="750.5,-1099.54 749,-1101.54 738.5,-1101.54 737,-1099.54 696.5,-1099.54 696.5,-1081.54 750.5,-1081.54 750.5,-1099.54"/>
<text text-anchor="middle" x="723.5" y="-1088.34" font-family="Helvetica,sans-Serif" font-size="9.00" fill="#c40b0a">index.js</text>
</a>
</g>
</g>
<!-- client/page/AdminTop.tsx&#45;&gt;node_modules/@material&#45;ui/icons/index.js -->
<g id="edge32" class="edge">
<title>client/page/AdminTop.tsx&#45;&gt;node_modules/@material&#45;ui/icons/index.js</title>
<path fill="none" stroke="#000000" stroke-opacity="0.200000" d="M320.78,-1511.99C324.75,-1509.9 328.32,-1507.14 331,-1503.54 341.89,-1488.85 327.37,-1188.64 339,-1174.54 426.64,-1068.29 614.86,-1077.44 690.28,-1086"/>
<polygon fill="#000000" fill-opacity="0.200000" stroke="#000000" stroke-opacity="0.200000" points="690.16,-1088.1 696.37,-1086.72 690.66,-1083.93 690.16,-1088.1"/>
</g>
<!-- client/page/Login.tsx&#45;&gt;node_modules/@material&#45;ui/core/index.js -->
<g id="edge35" class="edge">
<title>client/page/Login.tsx&#45;&gt;node_modules/@material&#45;ui/core/index.js</title>
<path fill="none" stroke="#000000" stroke-opacity="0.200000" d="M311.51,-1485.67C318.98,-1483.51 326.35,-1479.82 331,-1473.54 342.74,-1457.68 328.28,-1135.1 339,-1118.54 377.46,-1059.08 605.13,-1038.21 690.33,-1032.42"/>
<polygon fill="#000000" fill-opacity="0.200000" stroke="#000000" stroke-opacity="0.200000" points="690.61,-1034.51 696.46,-1032.02 690.33,-1030.32 690.61,-1034.51"/>
</g>
<!-- client/page/Login.tsx&#45;&gt;node_modules/react/index.js -->
<g id="edge36" class="edge">
<title>client/page/Login.tsx&#45;&gt;node_modules/react/index.js</title>
<path fill="none" stroke="#000000" stroke-opacity="0.200000" d="M311.86,-1485.43C319.16,-1483.25 326.34,-1479.61 331,-1473.54 350.37,-1448.28 319.97,-1356.05 339,-1330.54 382.98,-1271.57 583.84,-1249.64 650.5,-1218.54 669.02,-1209.89 689.03,-1198 703.23,-1189.08"/>
<polygon fill="#000000" fill-opacity="0.200000" stroke="#000000" stroke-opacity="0.200000" points="704.63,-1190.68 708.57,-1185.69 702.38,-1187.13 704.63,-1190.68"/>
</g>
<!-- client/page/Login.tsx&#45;&gt;client/container.ts -->
<g id="edge34" class="edge">
<title>client/page/Login.tsx&#45;&gt;client/container.ts</title>
<path fill="none" stroke="#000000" stroke-width="2" stroke-opacity="0.200000" d="M311.75,-1490.64C318.99,-1491.22 326.99,-1491.86 334.76,-1492.48"/>
<polygon fill="#000000" fill-opacity="0.200000" stroke="#000000" stroke-width="2" stroke-opacity="0.200000" points="335.05,-1494.61 341.2,-1492.99 335.39,-1490.42 335.05,-1494.61"/>
</g>
<!-- client/page/NewProject.tsx&#45;&gt;node_modules/@material&#45;ui/core/index.js -->
<g id="edge39" class="edge">
<title>client/page/NewProject.tsx&#45;&gt;node_modules/@material&#45;ui/core/index.js</title>
<path fill="none" stroke="#000000" stroke-opacity="0.200000" d="M285.25,-1449.52C283.91,-1394.45 279.75,-1103.92 339,-1044.54 370.26,-1013.2 492.33,-1021.43 536.5,-1018.54 587.06,-1015.22 600.01,-1014.36 650.5,-1018.54 663.63,-1019.62 677.98,-1021.81 690.38,-1024.02"/>
<polygon fill="#000000" fill-opacity="0.200000" stroke="#000000" stroke-opacity="0.200000" points="690.02,-1026.09 696.3,-1025.1 690.77,-1021.95 690.02,-1026.09"/>
</g>
<!-- client/page/NewProject.tsx&#45;&gt;node_modules/react/index.js -->
<g id="edge41" class="edge">
<title>client/page/NewProject.tsx&#45;&gt;node_modules/react/index.js</title>
<path fill="none" stroke="#000000" stroke-opacity="0.200000" d="M285.31,-1449.52C285.19,-1420.27 288.96,-1327.15 339,-1278.54 345.48,-1272.24 599.22,-1207.68 690.34,-1184.65"/>
<polygon fill="#000000" fill-opacity="0.200000" stroke="#000000" stroke-opacity="0.200000" points="691.05,-1186.63 696.35,-1183.13 690.02,-1182.56 691.05,-1186.63"/>
</g>
<!-- client/page/NewProject.tsx&#45;&gt;client/container.ts -->
<g id="edge38" class="edge">
<title>client/page/NewProject.tsx&#45;&gt;client/container.ts</title>
<path fill="none" stroke="#000000" stroke-width="2" stroke-opacity="0.200000" d="M315.62,-1467.69C320.8,-1469.49 326.1,-1471.46 331,-1473.54 337.73,-1476.39 344.85,-1479.91 351.27,-1483.29"/>
<polygon fill="#000000" fill-opacity="0.200000" stroke="#000000" stroke-width="2" stroke-opacity="0.200000" points="350.66,-1485.35 356.94,-1486.33 352.65,-1481.65 350.66,-1485.35"/>
</g>
<!-- client/page/NewProject.tsx&#45;&gt;node_modules/@material&#45;ui/icons/index.js -->
<g id="edge40" class="edge">
<title>client/page/NewProject.tsx&#45;&gt;node_modules/@material&#45;ui/icons/index.js</title>
<path fill="none" stroke="#000000" stroke-opacity="0.200000" d="M285.91,-1449.24C288.65,-1388.37 305.45,-1048.26 339,-1018.54 379.83,-982.37 413.63,-1012.45 650.5,-1070.54 663.6,-1073.75 677.94,-1077.65 690.35,-1081.15"/>
<polygon fill="#000000" fill-opacity="0.200000" stroke="#000000" stroke-opacity="0.200000" points="689.92,-1083.22 696.27,-1082.84 691.07,-1079.18 689.92,-1083.22"/>
</g>
<!-- common/validation.ts -->
<g id="node25" class="node">
<title>common/validation.ts</title>
<g id="a_node25"><a xlink:href="common/validation.ts" xlink:title="validation.ts">
<path fill="#ddfeff" stroke="black" d="M750,-377.54C750,-377.54 697,-377.54 697,-377.54 694,-377.54 691,-374.54 691,-371.54 691,-371.54 691,-365.54 691,-365.54 691,-362.54 694,-359.54 697,-359.54 697,-359.54 750,-359.54 750,-359.54 753,-359.54 756,-362.54 756,-365.54 756,-365.54 756,-371.54 756,-371.54 756,-374.54 753,-377.54 750,-377.54"/>
<text text-anchor="middle" x="723.5" y="-366.34" font-family="Helvetica,sans-Serif" font-size="9.00">validation.ts</text>
</a>
</g>
</g>
<!-- client/page/NewProject.tsx&#45;&gt;common/validation.ts -->
<g id="edge37" class="edge">
<title>client/page/NewProject.tsx&#45;&gt;common/validation.ts</title>
<path fill="none" stroke="#000000" stroke-width="2" stroke-opacity="0.200000" d="M285.63,-1449.41C286.53,-1397.33 293.3,-1137.77 339,-1075.54 358.65,-1048.78 383.96,-1067.91 406.5,-1043.54 619.7,-813.03 422.06,-590.14 658.5,-383.54 665.76,-377.19 675.2,-373.4 684.59,-371.17"/>
<polygon fill="#000000" fill-opacity="0.200000" stroke="#000000" stroke-width="2" stroke-opacity="0.200000" points="685.27,-373.17 690.73,-369.92 684.43,-369.06 685.27,-373.17"/>
</g>
<!-- client/page/Setting.tsx&#45;&gt;client/state.ts -->
<g id="edge44" class="edge">
<title>client/page/Setting.tsx&#45;&gt;client/state.ts</title>
<path fill="none" stroke="#000000" stroke-width="2" stroke-opacity="0.200000" d="M314.11,-1551.89C371.41,-1558.61 499.93,-1573.68 560.18,-1580.75"/>
<polygon fill="#000000" fill-opacity="0.200000" stroke="#000000" stroke-width="2" stroke-opacity="0.200000" points="560.28,-1582.87 566.48,-1581.49 560.77,-1578.7 560.28,-1582.87"/>
</g>
<!-- client/page/Setting.tsx&#45;&gt;node_modules/@material&#45;ui/core/index.js -->
<g id="edge45" class="edge">
<title>client/page/Setting.tsx&#45;&gt;node_modules/@material&#45;ui/core/index.js</title>
<path fill="none" stroke="#000000" stroke-opacity="0.200000" d="M314.26,-1544.69C320.72,-1542.45 326.87,-1538.96 331,-1533.54 342.11,-1518.93 329.82,-1384.43 339,-1368.54 391.21,-1278.17 448.67,-1297.9 536.5,-1241.54 587.14,-1209.04 619.5,-1220.1 650.5,-1168.54 673.02,-1131.08 635.78,-1107.86 658.5,-1070.54 666.12,-1058.02 679.3,-1048.8 691.73,-1042.39"/>
<polygon fill="#000000" fill-opacity="0.200000" stroke="#000000" stroke-opacity="0.200000" points="692.89,-1044.16 697.36,-1039.64 691.05,-1040.39 692.89,-1044.16"/>
</g>
<!-- client/page/Setting.tsx&#45;&gt;node_modules/react/index.js -->
<g id="edge46" class="edge">
<title>client/page/Setting.tsx&#45;&gt;node_modules/react/index.js</title>
<path fill="none" stroke="#000000" stroke-opacity="0.200000" d="M314.15,-1544.61C320.61,-1542.37 326.79,-1538.9 331,-1533.54 345.17,-1515.47 326.19,-1449.59 339,-1430.54 425.4,-1302.05 558.96,-1399.41 650.5,-1274.54 663.81,-1256.39 646.87,-1243.8 658.5,-1224.54 667.88,-1209 684.35,-1196.82 698.24,-1188.62"/>
<polygon fill="#000000" fill-opacity="0.200000" stroke="#000000" stroke-opacity="0.200000" points="699.43,-1190.35 703.61,-1185.56 697.36,-1186.7 699.43,-1190.35"/>
</g>
<!-- client/page/Setting.tsx&#45;&gt;client/container.ts -->
<g id="edge43" class="edge">
<title>client/page/Setting.tsx&#45;&gt;client/container.ts</title>
<path fill="none" stroke="#000000" stroke-width="2" stroke-opacity="0.200000" d="M314.21,-1541.1C319.96,-1539.05 325.82,-1536.55 331,-1533.54 342.12,-1527.07 352.85,-1517.28 360.67,-1509.26"/>
<polygon fill="#000000" fill-opacity="0.200000" stroke="#000000" stroke-width="2" stroke-opacity="0.200000" points="362.55,-1510.34 365.15,-1504.54 359.5,-1507.45 362.55,-1510.34"/>
</g>
<!-- common/url.ts -->
<g id="node20" class="node">
<title>common/url.ts</title>
<g id="a_node20"><a xlink:href="common/url.ts" xlink:title="url.ts">
<path fill="#ddfeff" stroke="black" d="M744.5,-407.54C744.5,-407.54 702.5,-407.54 702.5,-407.54 699.5,-407.54 696.5,-404.54 696.5,-401.54 696.5,-401.54 696.5,-395.54 696.5,-395.54 696.5,-392.54 699.5,-389.54 702.5,-389.54 702.5,-389.54 744.5,-389.54 744.5,-389.54 747.5,-389.54 750.5,-392.54 750.5,-395.54 750.5,-395.54 750.5,-401.54 750.5,-401.54 750.5,-404.54 747.5,-407.54 744.5,-407.54"/>
<text text-anchor="middle" x="723.5" y="-396.34" font-family="Helvetica,sans-Serif" font-size="9.00">url.ts</text>
</a>
</g>
</g>
<!-- client/page/Setting.tsx&#45;&gt;common/url.ts -->
<g id="edge42" class="edge">
<title>client/page/Setting.tsx&#45;&gt;common/url.ts</title>
<path fill="none" stroke="#000000" stroke-width="2" stroke-opacity="0.200000" d="M314.32,-1544.73C320.77,-1542.49 326.91,-1538.99 331,-1533.54 346.73,-1512.54 331.29,-1322.61 339,-1297.54 355.53,-1243.79 381.95,-1241.12 406.5,-1190.54 548.15,-898.65 572.95,-817.57 650.5,-502.54 656.51,-478.12 645.69,-468.17 658.5,-446.54 667.68,-431.03 684,-418.91 697.86,-410.73"/>
<polygon fill="#000000" fill-opacity="0.200000" stroke="#000000" stroke-width="2" stroke-opacity="0.200000" points="699.05,-412.47 703.23,-407.68 696.98,-408.81 699.05,-412.47"/>
</g>
<!-- client/state.ts&#45;&gt;node_modules/react/index.js -->
<g id="edge51" class="edge">
<title>client/state.ts&#45;&gt;node_modules/react/index.js</title>
<path fill="none" stroke="#000000" stroke-opacity="0.200000" d="M620.78,-1584.59C631.69,-1583.15 643.43,-1579.38 650.5,-1570.54 662.51,-1555.52 649.7,-1241.63 658.5,-1224.54 666.63,-1208.73 682.64,-1196.73 696.6,-1188.68"/>
<polygon fill="#000000" fill-opacity="0.200000" stroke="#000000" stroke-opacity="0.200000" points="697.79,-1190.42 702.03,-1185.68 695.77,-1186.74 697.79,-1190.42"/>
</g>
<!-- node_modules/notistack/dist/index.js -->
<g id="node10" class="node">
<title>node_modules/notistack/dist/index.js</title>
<g id="a_node10"><a xlink:href="node_modules/notistack/dist/index.js" xlink:title="index.js">
<polygon fill="#c40b0a" fill-opacity="0.101961" stroke="black" points="750.5,-1253.54 749,-1255.54 738.5,-1255.54 737,-1253.54 696.5,-1253.54 696.5,-1235.54 750.5,-1235.54 750.5,-1253.54"/>
<text text-anchor="middle" x="723.5" y="-1242.34" font-family="Helvetica,sans-Serif" font-size="9.00" fill="#c40b0a">index.js</text>
</a>
</g>
</g>
<!-- client/state.ts&#45;&gt;node_modules/notistack/dist/index.js -->
<g id="edge50" class="edge">
<title>client/state.ts&#45;&gt;node_modules/notistack/dist/index.js</title>
<path fill="none" stroke="#000000" stroke-opacity="0.200000" d="M620.74,-1584.56C631.65,-1583.11 643.39,-1579.35 650.5,-1570.54 668.09,-1548.73 648.31,-1344.63 658.5,-1318.54 668.27,-1293.52 690.39,-1271.17 705.87,-1257.75"/>
<polygon fill="#000000" fill-opacity="0.200000" stroke="#000000" stroke-opacity="0.200000" points="707.62,-1259.02 710.84,-1253.54 704.91,-1255.81 707.62,-1259.02"/>
</g>
<!-- client/api.ts -->
<g id="node11" class="node">
<title>client/api.ts</title>
<g id="a_node11"><a xlink:href="client/api.ts" xlink:title="api.ts">
<path fill="#ddfeff" stroke="black" d="M744.5,-1593.54C744.5,-1593.54 702.5,-1593.54 702.5,-1593.54 699.5,-1593.54 696.5,-1590.54 696.5,-1587.54 696.5,-1587.54 696.5,-1581.54 696.5,-1581.54 696.5,-1578.54 699.5,-1575.54 702.5,-1575.54 702.5,-1575.54 744.5,-1575.54 744.5,-1575.54 747.5,-1575.54 750.5,-1578.54 750.5,-1581.54 750.5,-1581.54 750.5,-1587.54 750.5,-1587.54 750.5,-1590.54 747.5,-1593.54 744.5,-1593.54"/>
<text text-anchor="middle" x="723.5" y="-1582.34" font-family="Helvetica,sans-Serif" font-size="9.00">api.ts</text>
</a>
</g>
</g>
<!-- client/state.ts&#45;&gt;client/api.ts -->
<g id="edge48" class="edge">
<title>client/state.ts&#45;&gt;client/api.ts</title>
<path fill="none" stroke="#000000" stroke-width="2" stroke-opacity="0.200000" d="M620.71,-1584.54C640.82,-1584.54 668.67,-1584.54 690.16,-1584.54"/>
<polygon fill="#000000" fill-opacity="0.200000" stroke="#000000" stroke-width="2" stroke-opacity="0.200000" points="690.32,-1586.64 696.32,-1584.54 690.32,-1582.44 690.32,-1586.64"/>
</g>
<!-- client/state.ts&#45;&gt;common/url.ts -->
<g id="edge47" class="edge">
<title>client/state.ts&#45;&gt;common/url.ts</title>
<path fill="none" stroke="#000000" stroke-width="2" stroke-opacity="0.200000" d="M620.56,-1584.68C631.56,-1583.27 643.44,-1579.52 650.5,-1570.54 669.8,-1545.99 644.44,-474.41 658.5,-446.54 666.51,-430.66 682.51,-418.66 696.51,-410.63"/>
<polygon fill="#000000" fill-opacity="0.200000" stroke="#000000" stroke-width="2" stroke-opacity="0.200000" points="697.7,-412.37 701.95,-407.64 695.68,-408.69 697.7,-412.37"/>
</g>
<!-- client/indexedDb.ts -->
<g id="node21" class="node">
<title>client/indexedDb.ts</title>
<g id="a_node21"><a xlink:href="client/indexedDb.ts" xlink:title="indexedDb.ts">
<path fill="#ddfeff" stroke="black" d="M753,-1563.54C753,-1563.54 694,-1563.54 694,-1563.54 691,-1563.54 688,-1560.54 688,-1557.54 688,-1557.54 688,-1551.54 688,-1551.54 688,-1548.54 691,-1545.54 694,-1545.54 694,-1545.54 753,-1545.54 753,-1545.54 756,-1545.54 759,-1548.54 759,-1551.54 759,-1551.54 759,-1557.54 759,-1557.54 759,-1560.54 756,-1563.54 753,-1563.54"/>
<text text-anchor="middle" x="723.5" y="-1552.34" font-family="Helvetica,sans-Serif" font-size="9.00">indexedDb.ts</text>
</a>
</g>
</g>
<!-- client/state.ts&#45;&gt;client/indexedDb.ts -->
<g id="edge49" class="edge">
<title>client/state.ts&#45;&gt;client/indexedDb.ts</title>
<path fill="none" stroke="#000000" stroke-width="2" stroke-opacity="0.200000" d="M620.71,-1578.39C638.21,-1574.29 661.58,-1568.81 681.52,-1564.14"/>
<polygon fill="#000000" fill-opacity="0.200000" stroke="#000000" stroke-width="2" stroke-opacity="0.200000" points="682.22,-1566.13 687.58,-1562.72 681.26,-1562.05 682.22,-1566.13"/>
</g>
<!-- node_modules/unstated&#45;next/dist/unstated&#45;next.js -->
<g id="node26" class="node">
<title>node_modules/unstated&#45;next/dist/unstated&#45;next.js</title>
<g id="a_node26"><a xlink:href="node_modules/unstated-next/dist/unstated-next.js" xlink:title="unstated&#45;next.js">
<polygon fill="#c40b0a" fill-opacity="0.101961" stroke="black" points="764.5,-1347.54 763,-1349.54 752.5,-1349.54 751,-1347.54 682.5,-1347.54 682.5,-1329.54 764.5,-1329.54 764.5,-1347.54"/>
<text text-anchor="middle" x="723.5" y="-1336.34" font-family="Helvetica,sans-Serif" font-size="9.00" fill="#c40b0a">unstated&#45;next.js</text>
</a>
</g>
</g>
<!-- client/state.ts&#45;&gt;node_modules/unstated&#45;next/dist/unstated&#45;next.js -->
<g id="edge52" class="edge">
<title>client/state.ts&#45;&gt;node_modules/unstated&#45;next/dist/unstated&#45;next.js</title>
<path fill="none" stroke="#000000" stroke-opacity="0.200000" d="M620.64,-1584.48C631.52,-1583.01 643.28,-1579.26 650.5,-1570.54 660.44,-1558.53 653.42,-1445.26 658.5,-1430.54 669.2,-1399.54 693.56,-1369.47 708.95,-1352.55"/>
<polygon fill="#000000" fill-opacity="0.200000" stroke="#000000" stroke-opacity="0.200000" points="710.87,-1353.57 713.41,-1347.74 707.79,-1350.71 710.87,-1353.57"/>
</g>
<!-- client/ThemedApp.tsx -->
<g id="node9" class="node">
<title>client/ThemedApp.tsx</title>
<g id="a_node9"><a xlink:href="client/ThemedApp.tsx" xlink:title="ThemedApp.tsx">
<path fill="#bbfeff" stroke="black" d="M157,-1459.54C157,-1459.54 89,-1459.54 89,-1459.54 86,-1459.54 83,-1456.54 83,-1453.54 83,-1453.54 83,-1447.54 83,-1447.54 83,-1444.54 86,-1441.54 89,-1441.54 89,-1441.54 157,-1441.54 157,-1441.54 160,-1441.54 163,-1444.54 163,-1447.54 163,-1447.54 163,-1453.54 163,-1453.54 163,-1456.54 160,-1459.54 157,-1459.54"/>
<text text-anchor="middle" x="123" y="-1448.34" font-family="Helvetica,sans-Serif" font-size="9.00">ThemedApp.tsx</text>
</a>
</g>
</g>
<!-- client/ThemedApp.tsx&#45;&gt;client/App.tsx -->
<g id="edge8" class="edge">
<title>client/ThemedApp.tsx&#45;&gt;client/App.tsx</title>
<path fill="none" stroke="#000000" stroke-width="2" stroke-opacity="0.200000" d="M154.83,-1459.63C159.85,-1461.11 165.06,-1462.64 170.1,-1464.13"/>
<polygon fill="#000000" fill-opacity="0.200000" stroke="#000000" stroke-width="2" stroke-opacity="0.200000" points="169.58,-1466.16 175.93,-1465.85 170.76,-1462.14 169.58,-1466.16"/>
</g>
<!-- client/ThemedApp.tsx&#45;&gt;client/state.ts -->
<g id="edge9" class="edge">
<title>client/ThemedApp.tsx&#45;&gt;client/state.ts</title>
<path fill="none" stroke="#000000" stroke-width="2" stroke-opacity="0.200000" d="M127.92,-1459.83C142.77,-1493.41 199.06,-1606.54 283.5,-1606.54 283.5,-1606.54 283.5,-1606.54 375,-1606.54 443.4,-1606.54 460.6,-1603.78 528.5,-1595.54 538.88,-1594.28 550.14,-1592.48 560.28,-1590.71"/>
<polygon fill="#000000" fill-opacity="0.200000" stroke="#000000" stroke-width="2" stroke-opacity="0.200000" points="560.89,-1592.74 566.43,-1589.62 560.15,-1588.6 560.89,-1592.74"/>
</g>
<!-- client/ThemedApp.tsx&#45;&gt;node_modules/@material&#45;ui/core/index.js -->
<g id="edge10" class="edge">
<title>client/ThemedApp.tsx&#45;&gt;node_modules/@material&#45;ui/core/index.js</title>
<path fill="none" stroke="#000000" stroke-opacity="0.200000" d="M123.79,-1441.42C122.61,-1369.65 124.36,-898.54 373,-898.54 373,-898.54 373,-898.54 472.5,-898.54 557.03,-898.54 594.91,-901.86 650.5,-965.54 660.99,-977.56 648.48,-988.11 658.5,-1000.54 666.64,-1010.63 678.97,-1017.51 690.64,-1022.1"/>
<polygon fill="#000000" fill-opacity="0.200000" stroke="#000000" stroke-opacity="0.200000" points="689.94,-1024.08 696.3,-1024.17 691.39,-1020.13 689.94,-1024.08"/>
</g>
<!-- client/ThemedApp.tsx&#45;&gt;node_modules/react/index.js -->
<g id="edge12" class="edge">
<title>client/ThemedApp.tsx&#45;&gt;node_modules/react/index.js</title>
<path fill="none" stroke="#000000" stroke-opacity="0.200000" d="M123.51,-1441.14C122.4,-1409.74 123.17,-1307.24 176,-1251.54 314.97,-1105.01 595.8,-1148.99 690.49,-1169.05"/>
<polygon fill="#000000" fill-opacity="0.200000" stroke="#000000" stroke-opacity="0.200000" points="690.15,-1171.12 696.46,-1170.33 691.03,-1167.01 690.15,-1171.12"/>
</g>
<!-- client/ThemedApp.tsx&#45;&gt;node_modules/notistack/dist/index.js -->
<g id="edge11" class="edge">
<title>client/ThemedApp.tsx&#45;&gt;node_modules/notistack/dist/index.js</title>
<path fill="none" stroke="#000000" stroke-opacity="0.200000" d="M125.99,-1441.34C135.43,-1400.38 179.71,-1236.54 283.5,-1236.54 283.5,-1236.54 283.5,-1236.54 375,-1236.54 491.1,-1236.54 628.96,-1241.05 690.3,-1243.3"/>
<polygon fill="#000000" fill-opacity="0.200000" stroke="#000000" stroke-opacity="0.200000" points="690.28,-1245.4 696.35,-1243.52 690.43,-1241.2 690.28,-1245.4"/>
</g>
<!-- common/apiCodec.ts -->
<g id="node12" class="node">
<title>common/apiCodec.ts</title>
<g id="a_node12"><a xlink:href="common/apiCodec.ts" xlink:title="apiCodec.ts">
<path fill="#ddfeff" stroke="black" d="M750.5,-347.54C750.5,-347.54 696.5,-347.54 696.5,-347.54 693.5,-347.54 690.5,-344.54 690.5,-341.54 690.5,-341.54 690.5,-335.54 690.5,-335.54 690.5,-332.54 693.5,-329.54 696.5,-329.54 696.5,-329.54 750.5,-329.54 750.5,-329.54 753.5,-329.54 756.5,-332.54 756.5,-335.54 756.5,-335.54 756.5,-341.54 756.5,-341.54 756.5,-344.54 753.5,-347.54 750.5,-347.54"/>
<text text-anchor="middle" x="723.5" y="-336.34" font-family="Helvetica,sans-Serif" font-size="9.00">apiCodec.ts</text>
</a>
</g>
</g>
<!-- client/api.ts&#45;&gt;common/apiCodec.ts -->
<g id="edge13" class="edge">
<title>client/api.ts&#45;&gt;common/apiCodec.ts</title>
<path fill="none" stroke="#000000" stroke-width="2" stroke-opacity="0.200000" d="M696.47,-1585.25C678.92,-1584.02 658.38,-1578.75 653.17,-1561.54 650.75,-1553.56 650.75,-369.51 653.17,-361.54 657.21,-348.2 670.46,-342.03 684.38,-339.36"/>
<polygon fill="#000000" fill-opacity="0.200000" stroke="#000000" stroke-width="2" stroke-opacity="0.200000" points="684.77,-341.42 690.37,-338.41 684.11,-337.27 684.77,-341.42"/>
<path fill="none" stroke="#000000" stroke-width="2" stroke-opacity="0.200000" d="M696.37,-1586.41C679.72,-1585.85 660.68,-1581.54 655.83,-1565.54 653.4,-1557.51 653.4,-365.57 655.83,-357.54 659.54,-345.28 671.58,-339.88 684.49,-337.77"/>
<polygon fill="#000000" fill-opacity="0.200000" stroke="#000000" stroke-width="2" stroke-opacity="0.200000" points="684.77,-339.86 690.46,-337.03 684.25,-335.69 684.77,-339.86"/>
</g>
<!-- data.ts -->
<g id="node13" class="node">
<title>data.ts</title>
<g id="a_node13"><a xlink:href="data.ts" xlink:title="data.ts">
<path fill="#ddfeff" stroke="black" d="M850.5,-459.54C850.5,-459.54 808.5,-459.54 808.5,-459.54 805.5,-459.54 802.5,-456.54 802.5,-453.54 802.5,-453.54 802.5,-447.54 802.5,-447.54 802.5,-444.54 805.5,-441.54 808.5,-441.54 808.5,-441.54 850.5,-441.54 850.5,-441.54 853.5,-441.54 856.5,-444.54 856.5,-447.54 856.5,-447.54 856.5,-453.54 856.5,-453.54 856.5,-456.54 853.5,-459.54 850.5,-459.54"/>
<text text-anchor="middle" x="829.5" y="-448.34" font-family="Helvetica,sans-Serif" font-size="9.00">data.ts</text>
</a>
</g>
</g>
<!-- client/api.ts&#45;&gt;data.ts -->
<g id="edge14" class="edge">
<title>client/api.ts&#45;&gt;data.ts</title>
<path fill="none" stroke="#000000" stroke-width="2" stroke-opacity="0.200000" d="M750.51,-1585.43C763.97,-1584.39 779.44,-1580.56 788.5,-1569.54 825.19,-1524.91 828.23,-598.06 828.48,-466.11"/>
<polygon fill="#000000" fill-opacity="0.200000" stroke="#000000" stroke-width="2" stroke-opacity="0.200000" points="830.58,-465.81 828.49,-459.8 826.38,-465.8 830.58,-465.81"/>
</g>
<!-- common/apiCodec.ts&#45;&gt;data.ts -->
<g id="edge60" class="edge">
<title>common/apiCodec.ts&#45;&gt;data.ts</title>
<path fill="none" stroke="#000000" stroke-width="2" stroke-opacity="0.200000" d="M756.8,-338.62C768.43,-340.37 780.61,-344.51 788.5,-353.54 800.7,-367.49 785.62,-421.53 796.5,-436.54 796.79,-436.94 797.1,-437.33 797.42,-437.72"/>
<polygon fill="#000000" fill-opacity="0.200000" stroke="#000000" stroke-width="2" stroke-opacity="0.200000" points="796.38,-439.6 802.23,-442.08 799.2,-436.49 796.38,-439.6"/>
</g>
<!-- client/container/AppBar.tsx -->
<g id="node15" class="node">
<title>client/container/AppBar.tsx</title>
<g id="a_node15"><a xlink:href="client/container/AppBar.tsx" xlink:title="AppBar.tsx">
<path fill="#bbfeff" stroke="black" d="M495.5,-1474.54C495.5,-1474.54 447.5,-1474.54 447.5,-1474.54 444.5,-1474.54 441.5,-1471.54 441.5,-1468.54 441.5,-1468.54 441.5,-1462.54 441.5,-1462.54 441.5,-1459.54 444.5,-1456.54 447.5,-1456.54 447.5,-1456.54 495.5,-1456.54 495.5,-1456.54 498.5,-1456.54 501.5,-1459.54 501.5,-1462.54 501.5,-1462.54 501.5,-1468.54 501.5,-1468.54 501.5,-1471.54 498.5,-1474.54 495.5,-1474.54"/>
<text text-anchor="middle" x="471.5" y="-1463.34" font-family="Helvetica,sans-Serif" font-size="9.00">AppBar.tsx</text>
</a>
</g>
</g>
<!-- client/container.ts&#45;&gt;client/container/AppBar.tsx -->
<g id="edge15" class="edge">
<title>client/container.ts&#45;&gt;client/container/AppBar.tsx</title>
<path fill="none" stroke="#000000" stroke-width="2" stroke-opacity="0.200000" d="M397.84,-1486.42C403.26,-1484.37 409.06,-1482.29 414.5,-1480.54 421.1,-1478.41 428.2,-1476.33 435.06,-1474.45"/>
<polygon fill="#000000" fill-opacity="0.200000" stroke="#000000" stroke-width="2" stroke-opacity="0.200000" points="436.03,-1476.36 441.27,-1472.77 434.93,-1472.31 436.03,-1476.36"/>
</g>
<!-- client/container/LineLoginButton.tsx -->
<g id="node16" class="node">
<title>client/container/LineLoginButton.tsx</title>
<g id="a_node16"><a xlink:href="client/container/LineLoginButton.tsx" xlink:title="LineLoginButton.tsx">
<path fill="#bbfeff" stroke="black" d="M514.5,-1534.54C514.5,-1534.54 428.5,-1534.54 428.5,-1534.54 425.5,-1534.54 422.5,-1531.54 422.5,-1528.54 422.5,-1528.54 422.5,-1522.54 422.5,-1522.54 422.5,-1519.54 425.5,-1516.54 428.5,-1516.54 428.5,-1516.54 514.5,-1516.54 514.5,-1516.54 517.5,-1516.54 520.5,-1519.54 520.5,-1522.54 520.5,-1522.54 520.5,-1528.54 520.5,-1528.54 520.5,-1531.54 517.5,-1534.54 514.5,-1534.54"/>
<text text-anchor="middle" x="471.5" y="-1523.34" font-family="Helvetica,sans-Serif" font-size="9.00">LineLoginButton.tsx</text>
</a>
</g>
</g>
<!-- client/container.ts&#45;&gt;client/container/LineLoginButton.tsx -->
<g id="edge16" class="edge">
<title>client/container.ts&#45;&gt;client/container/LineLoginButton.tsx</title>
<path fill="none" stroke="#000000" stroke-width="2" stroke-opacity="0.200000" d="M397.84,-1504.66C403.26,-1506.7 409.06,-1508.78 414.5,-1510.54 419.01,-1511.99 423.76,-1513.42 428.5,-1514.78"/>
<polygon fill="#000000" fill-opacity="0.200000" stroke="#000000" stroke-width="2" stroke-opacity="0.200000" points="428.15,-1516.86 434.49,-1516.47 429.29,-1512.82 428.15,-1516.86"/>
</g>
<!-- client/container/Link.tsx -->
<g id="node17" class="node">
<title>client/container/Link.tsx</title>
<g id="a_node17"><a xlink:href="client/container/Link.tsx" xlink:title="Link.tsx">
<path fill="#bbfeff" stroke="black" d="M492.5,-1504.54C492.5,-1504.54 450.5,-1504.54 450.5,-1504.54 447.5,-1504.54 444.5,-1501.54 444.5,-1498.54 444.5,-1498.54 444.5,-1492.54 444.5,-1492.54 444.5,-1489.54 447.5,-1486.54 450.5,-1486.54 450.5,-1486.54 492.5,-1486.54 492.5,-1486.54 495.5,-1486.54 498.5,-1489.54 498.5,-1492.54 498.5,-1492.54 498.5,-1498.54 498.5,-1498.54 498.5,-1501.54 495.5,-1504.54 492.5,-1504.54"/>
<text text-anchor="middle" x="471.5" y="-1493.34" font-family="Helvetica,sans-Serif" font-size="9.00">Link.tsx</text>
</a>
</g>
</g>
<!-- client/container.ts&#45;&gt;client/container/Link.tsx -->
<g id="edge17" class="edge">
<title>client/container.ts&#45;&gt;client/container/Link.tsx</title>
<path fill="none" stroke="#000000" stroke-width="2" stroke-opacity="0.200000" d="M406.53,-1495.54C416.7,-1495.54 427.98,-1495.54 438.21,-1495.54"/>
<polygon fill="#000000" fill-opacity="0.200000" stroke="#000000" stroke-width="2" stroke-opacity="0.200000" points="438.42,-1497.64 444.42,-1495.54 438.42,-1493.44 438.42,-1497.64"/>
</g>
<!-- client/container/AppBar.tsx&#45;&gt;node_modules/react/index.js -->
<g id="edge19" class="edge">
<title>client/container/AppBar.tsx&#45;&gt;node_modules/react/index.js</title>
<path fill="none" stroke="#000000" stroke-opacity="0.200000" d="M480.23,-1456.43C491.4,-1443.84 513.27,-1421.25 536.5,-1408.54 582.67,-1383.28 617.62,-1417.63 650.5,-1376.54 661.07,-1363.33 650.54,-1239.46 658.5,-1224.54 666.92,-1208.74 683.09,-1196.68 697.06,-1188.6"/>
<polygon fill="#000000" fill-opacity="0.200000" stroke="#000000" stroke-opacity="0.200000" points="698.26,-1190.34 702.49,-1185.6 696.22,-1186.67 698.26,-1190.34"/>
</g>
<!-- client/ui/AppBar.tsx -->
<g id="node18" class="node">
<title>client/ui/AppBar.tsx</title>
<g id="a_node18"><a xlink:href="client/ui/AppBar.tsx" xlink:title="AppBar.tsx">
<path fill="#bbfeff" stroke="black" d="M617.5,-1511.54C617.5,-1511.54 569.5,-1511.54 569.5,-1511.54 566.5,-1511.54 563.5,-1508.54 563.5,-1505.54 563.5,-1505.54 563.5,-1499.54 563.5,-1499.54 563.5,-1496.54 566.5,-1493.54 569.5,-1493.54 569.5,-1493.54 617.5,-1493.54 617.5,-1493.54 620.5,-1493.54 623.5,-1496.54 623.5,-1499.54 623.5,-1499.54 623.5,-1505.54 623.5,-1505.54 623.5,-1508.54 620.5,-1511.54 617.5,-1511.54"/>
<text text-anchor="middle" x="593.5" y="-1500.34" font-family="Helvetica,sans-Serif" font-size="9.00">AppBar.tsx</text>
</a>
</g>
</g>
<!-- client/container/AppBar.tsx&#45;&gt;client/ui/AppBar.tsx -->
<g id="edge18" class="edge">
<title>client/container/AppBar.tsx&#45;&gt;client/ui/AppBar.tsx</title>
<path fill="none" stroke="#000000" stroke-width="2" stroke-opacity="0.200000" d="M501.67,-1472.94C510.34,-1475.25 519.84,-1477.89 528.5,-1480.54 539.4,-1483.87 551.24,-1487.83 561.73,-1491.47"/>
<polygon fill="#000000" fill-opacity="0.200000" stroke="#000000" stroke-width="2" stroke-opacity="0.200000" points="561.05,-1493.46 567.4,-1493.46 562.43,-1489.5 561.05,-1493.46"/>
</g>
<!-- client/container/LineLoginButton.tsx&#45;&gt;node_modules/react/index.js -->
<g id="edge23" class="edge">
<title>client/container/LineLoginButton.tsx&#45;&gt;node_modules/react/index.js</title>
<path fill="none" stroke="#000000" stroke-opacity="0.200000" d="M520.67,-1517.03C523.57,-1515.24 526.23,-1513.09 528.5,-1510.54 544.91,-1492.08 519.82,-1473.76 536.5,-1455.54 571.66,-1417.13 617.41,-1468.74 650.5,-1428.54 664.92,-1411.02 647.96,-1244.62 658.5,-1224.54 666.82,-1208.68 682.98,-1196.63 696.99,-1188.56"/>
<polygon fill="#000000" fill-opacity="0.200000" stroke="#000000" stroke-opacity="0.200000" points="698.19,-1190.3 702.42,-1185.56 696.16,-1186.62 698.19,-1190.3"/>
</g>
<!-- client/container/LineLoginButton.tsx&#45;&gt;node_modules/notistack/dist/index.js -->
<g id="edge22" class="edge">
<title>client/container/LineLoginButton.tsx&#45;&gt;node_modules/notistack/dist/index.js</title>
<path fill="none" stroke="#000000" stroke-opacity="0.200000" d="M520.56,-1516.52C523.44,-1514.84 526.13,-1512.87 528.5,-1510.54 537.73,-1501.46 527.18,-1491.52 536.5,-1482.54 574.08,-1446.34 617.12,-1494.63 650.5,-1454.54 660.19,-1442.9 652.8,-1332.56 658.5,-1318.54 668.61,-1293.65 690.65,-1271.28 706.02,-1257.8"/>
<polygon fill="#000000" fill-opacity="0.200000" stroke="#000000" stroke-opacity="0.200000" points="707.76,-1259.08 710.95,-1253.59 705.03,-1255.89 707.76,-1259.08"/>
</g>
<!-- client/container/LineLoginButton.tsx&#45;&gt;client/api.ts -->
<g id="edge20" class="edge">
<title>client/container/LineLoginButton.tsx&#45;&gt;client/api.ts</title>
<path fill="none" stroke="#000000" stroke-width="2" stroke-opacity="0.200000" d="M476.94,-1534.56C485.67,-1551.13 506.84,-1585.97 536.5,-1599.54 587.54,-1622.87 654.67,-1607.76 692.75,-1595.54"/>
<polygon fill="#000000" fill-opacity="0.200000" stroke="#000000" stroke-width="2" stroke-opacity="0.200000" points="693.56,-1597.49 698.6,-1593.62 692.25,-1593.5 693.56,-1597.49"/>
</g>
<!-- client/ui/LineLoginButton.tsx -->
<g id="node19" class="node">
<title>client/ui/LineLoginButton.tsx</title>
<g id="a_node19"><a xlink:href="client/ui/LineLoginButton.tsx" xlink:title="LineLoginButton.tsx">
<path fill="#bbfeff" stroke="black" d="M636.5,-1541.54C636.5,-1541.54 550.5,-1541.54 550.5,-1541.54 547.5,-1541.54 544.5,-1538.54 544.5,-1535.54 544.5,-1535.54 544.5,-1529.54 544.5,-1529.54 544.5,-1526.54 547.5,-1523.54 550.5,-1523.54 550.5,-1523.54 636.5,-1523.54 636.5,-1523.54 639.5,-1523.54 642.5,-1526.54 642.5,-1529.54 642.5,-1529.54 642.5,-1535.54 642.5,-1535.54 642.5,-1538.54 639.5,-1541.54 636.5,-1541.54"/>
<text text-anchor="middle" x="593.5" y="-1530.34" font-family="Helvetica,sans-Serif" font-size="9.00">LineLoginButton.tsx</text>
</a>
</g>
</g>
<!-- client/container/LineLoginButton.tsx&#45;&gt;client/ui/LineLoginButton.tsx -->
<g id="edge21" class="edge">
<title>client/container/LineLoginButton.tsx&#45;&gt;client/ui/LineLoginButton.tsx</title>
<path fill="none" stroke="#000000" stroke-width="2" stroke-opacity="0.200000" d="M520.62,-1528.34C526.36,-1528.68 532.26,-1529.02 538.09,-1529.36"/>
<polygon fill="#000000" fill-opacity="0.200000" stroke="#000000" stroke-width="2" stroke-opacity="0.200000" points="538.26,-1531.48 544.37,-1529.73 538.5,-1527.28 538.26,-1531.48"/>
</g>
<!-- client/container/Link.tsx&#45;&gt;client/state.ts -->
<g id="edge25" class="edge">
<title>client/container/Link.tsx&#45;&gt;client/state.ts</title>
<path fill="none" stroke="#000000" stroke-width="2" stroke-opacity="0.200000" d="M498.66,-1496.4C509.41,-1498.14 521.06,-1502.07 528.5,-1510.54 546.26,-1530.75 518.58,-1550.47 536.5,-1570.54 542.58,-1577.34 551.41,-1581.07 560.27,-1583.06"/>
<polygon fill="#000000" fill-opacity="0.200000" stroke="#000000" stroke-width="2" stroke-opacity="0.200000" points="560.1,-1585.16 566.38,-1584.18 560.85,-1581.03 560.1,-1585.16"/>
</g>
<!-- client/container/Link.tsx&#45;&gt;node_modules/react/index.js -->
<g id="edge26" class="edge">
<title>client/container/Link.tsx&#45;&gt;node_modules/react/index.js</title>
<path fill="none" stroke="#000000" stroke-opacity="0.200000" d="M498.5,-1494.53C509.22,-1492.77 520.89,-1488.86 528.5,-1480.54 542.5,-1465.22 522.59,-1449.94 536.5,-1434.54 571.78,-1395.49 617.78,-1443.75 650.5,-1402.54 662.81,-1387.03 649.25,-1242.04 658.5,-1224.54 666.86,-1208.71 683.03,-1196.65 697.02,-1188.58"/>
<polygon fill="#000000" fill-opacity="0.200000" stroke="#000000" stroke-opacity="0.200000" points="698.22,-1190.32 702.45,-1185.58 696.19,-1186.64 698.22,-1190.32"/>
</g>
<!-- client/container/Link.tsx&#45;&gt;common/url.ts -->
<g id="edge24" class="edge">
<title>client/container/Link.tsx&#45;&gt;common/url.ts</title>
<path fill="none" stroke="#000000" stroke-width="2" stroke-opacity="0.200000" d="M498.51,-1494.84C509.37,-1493.15 521.14,-1489.21 528.5,-1480.54 540.2,-1466.75 531.53,-1416.93 536.5,-1399.54 567.97,-1289.46 623.87,-1279.88 650.5,-1168.54 655.17,-1149.03 649.43,-464.43 658.5,-446.54 666.54,-430.68 682.54,-418.68 696.53,-410.64"/>
<polygon fill="#000000" fill-opacity="0.200000" stroke="#000000" stroke-width="2" stroke-opacity="0.200000" points="697.73,-412.38 701.97,-407.65 695.7,-408.7 697.73,-412.38"/>
</g>
<!-- client/ui/AppBar.tsx&#45;&gt;node_modules/@material&#45;ui/core/index.js -->
<g id="edge55" class="edge">
<title>client/ui/AppBar.tsx&#45;&gt;node_modules/@material&#45;ui/core/index.js</title>
<path fill="none" stroke="#000000" stroke-opacity="0.200000" d="M598.32,-1493.49C609.01,-1467.69 639.17,-1391.29 650.5,-1324.54 655.23,-1296.7 644.42,-1095.01 658.5,-1070.54 665.75,-1057.93 678.74,-1048.73 691.14,-1042.36"/>
<polygon fill="#000000" fill-opacity="0.200000" stroke="#000000" stroke-opacity="0.200000" points="692.29,-1044.14 696.77,-1039.63 690.46,-1040.36 692.29,-1044.14"/>
</g>
<!-- client/ui/AppBar.tsx&#45;&gt;node_modules/react/index.js -->
<g id="edge57" class="edge">
<title>client/ui/AppBar.tsx&#45;&gt;node_modules/react/index.js</title>
<path fill="none" stroke="#000000" stroke-opacity="0.200000" d="M611.34,-1493.4C624.61,-1485.17 642.23,-1471.73 650.5,-1454.54 661.59,-1431.49 646.67,-1247.21 658.5,-1224.54 666.78,-1208.67 682.95,-1196.61 696.96,-1188.55"/>
<polygon fill="#000000" fill-opacity="0.200000" stroke="#000000" stroke-opacity="0.200000" points="698.16,-1190.28 702.4,-1185.55 696.13,-1186.61 698.16,-1190.28"/>
</g>
<!-- client/ui/AppBar.tsx&#45;&gt;client/container/Link.tsx -->
<g id="edge54" class="edge">
<title>client/ui/AppBar.tsx&#45;&gt;client/container/Link.tsx</title>
<path fill="none" stroke="#000000" stroke-width="2" stroke-opacity="0.200000" d="M563.14,-1500.82C545.39,-1499.79 522.75,-1498.47 504.53,-1497.4"/>
<polygon fill="#000000" fill-opacity="0.200000" stroke="#000000" stroke-width="2" stroke-opacity="0.200000" points="504.65,-1495.31 498.54,-1497.06 504.41,-1499.5 504.65,-1495.31"/>
</g>
<!-- client/ui/AppBar.tsx&#45;&gt;common/url.ts -->
<g id="edge53" class="edge">
<title>client/ui/AppBar.tsx&#45;&gt;common/url.ts</title>
<path fill="none" stroke="#000000" stroke-width="2" stroke-opacity="0.200000" d="M598.4,-1493.5C609.29,-1467.73 639.92,-1391.41 650.5,-1324.54 654.31,-1300.45 647.49,-468.3 658.5,-446.54 666.52,-430.67 682.52,-418.67 696.52,-410.64"/>
<polygon fill="#000000" fill-opacity="0.200000" stroke="#000000" stroke-width="2" stroke-opacity="0.200000" points="697.72,-412.38 701.96,-407.65 695.69,-408.69 697.72,-412.38"/>
</g>
<!-- client/ui/AppBar.tsx&#45;&gt;node_modules/@material&#45;ui/icons/index.js -->
<g id="edge56" class="edge">
<title>client/ui/AppBar.tsx&#45;&gt;node_modules/@material&#45;ui/icons/index.js</title>
<path fill="none" stroke="#000000" stroke-opacity="0.200000" d="M598.27,-1493.48C608.82,-1467.65 638.63,-1391.2 650.5,-1324.54 657.05,-1287.74 643.64,-1190.83 658.5,-1156.54 668.13,-1134.3 688.85,-1115.22 704.12,-1103.38"/>
<polygon fill="#000000" fill-opacity="0.200000" stroke="#000000" stroke-opacity="0.200000" points="705.54,-1104.94 709.06,-1099.65 703.01,-1101.59 705.54,-1104.94"/>
</g>
<!-- client/ui/LineLoginButton.tsx&#45;&gt;node_modules/@material&#45;ui/core/index.js -->
<g id="edge58" class="edge">
<title>client/ui/LineLoginButton.tsx&#45;&gt;node_modules/@material&#45;ui/core/index.js</title>
<path fill="none" stroke="#000000" stroke-opacity="0.200000" d="M642.55,-1524.67C645.56,-1522.74 648.27,-1520.39 650.5,-1517.54 665.8,-1497.97 646.27,-1092.15 658.5,-1070.54 665.66,-1057.88 678.65,-1048.68 691.06,-1042.32"/>
<polygon fill="#000000" fill-opacity="0.200000" stroke="#000000" stroke-opacity="0.200000" points="692.21,-1044.09 696.7,-1039.59 690.38,-1040.31 692.21,-1044.09"/>
</g>
<!-- client/ui/LineLoginButton.tsx&#45;&gt;node_modules/react/index.js -->
<g id="edge59" class="edge">
<title>client/ui/LineLoginButton.tsx&#45;&gt;node_modules/react/index.js</title>
<path fill="none" stroke="#000000" stroke-opacity="0.200000" d="M642.52,-1524.64C645.53,-1522.72 648.26,-1520.38 650.5,-1517.54 670.68,-1491.97 643.54,-1253.46 658.5,-1224.54 666.67,-1208.74 682.67,-1196.74 696.63,-1188.69"/>
<polygon fill="#000000" fill-opacity="0.200000" stroke="#000000" stroke-opacity="0.200000" points="697.82,-1190.43 702.06,-1185.69 695.79,-1186.76 697.82,-1190.43"/>
</g>
<!-- common/url.ts&#45;&gt;data.ts -->
<g id="edge61" class="edge">
<title>common/url.ts&#45;&gt;data.ts</title>
<path fill="none" stroke="#000000" stroke-width="2" stroke-opacity="0.200000" d="M740.91,-407.64C755.39,-415.56 777.15,-427.21 796.5,-436.54 798.09,-437.3 799.73,-438.07 801.39,-438.84"/>
<polygon fill="#000000" fill-opacity="0.200000" stroke="#000000" stroke-width="2" stroke-opacity="0.200000" points="800.73,-440.85 807.06,-441.41 802.46,-437.02 800.73,-440.85"/>
</g>
<!-- common/nowMode.ts -->
<g id="node27" class="node">
<title>common/nowMode.ts</title>
<g id="a_node27"><a xlink:href="common/nowMode.ts" xlink:title="nowMode.ts">
<path fill="#ddfeff" stroke="black" d="M856.5,-377.54C856.5,-377.54 802.5,-377.54 802.5,-377.54 799.5,-377.54 796.5,-374.54 796.5,-371.54 796.5,-371.54 796.5,-365.54 796.5,-365.54 796.5,-362.54 799.5,-359.54 802.5,-359.54 802.5,-359.54 856.5,-359.54 856.5,-359.54 859.5,-359.54 862.5,-362.54 862.5,-365.54 862.5,-365.54 862.5,-371.54 862.5,-371.54 862.5,-374.54 859.5,-377.54 856.5,-377.54"/>
<text text-anchor="middle" x="829.5" y="-366.34" font-family="Helvetica,sans-Serif" font-size="9.00">nowMode.ts</text>
</a>
</g>
</g>
<!-- common/url.ts&#45;&gt;common/nowMode.ts -->
<g id="edge62" class="edge">
<title>common/url.ts&#45;&gt;common/nowMode.ts</title>
<path fill="none" stroke="#000000" stroke-width="2" stroke-opacity="0.200000" d="M750.55,-393.23C762.24,-390.64 776.16,-387.28 788.5,-383.54 792.23,-382.41 796.11,-381.11 799.92,-379.76"/>
<polygon fill="#000000" fill-opacity="0.200000" stroke="#000000" stroke-width="2" stroke-opacity="0.200000" points="800.91,-381.64 805.83,-377.62 799.47,-377.69 800.91,-381.64"/>
</g>
<!-- client/main.tsx -->
<g id="node22" class="node">
<title>client/main.tsx</title>
<g id="a_node22"><a xlink:href="client/main.tsx" xlink:title="main.tsx">
<path fill="#bbfeff" stroke="black" d="M64,-1459.54C64,-1459.54 22,-1459.54 22,-1459.54 19,-1459.54 16,-1456.54 16,-1453.54 16,-1453.54 16,-1447.54 16,-1447.54 16,-1444.54 19,-1441.54 22,-1441.54 22,-1441.54 64,-1441.54 64,-1441.54 67,-1441.54 70,-1444.54 70,-1447.54 70,-1447.54 70,-1453.54 70,-1453.54 70,-1456.54 67,-1459.54 64,-1459.54"/>
<text text-anchor="middle" x="43" y="-1448.34" font-family="Helvetica,sans-Serif" font-size="9.00">main.tsx</text>
</a>
</g>
</g>
<!-- client/main.tsx&#45;&gt;node_modules/react/index.js -->
<g id="edge28" class="edge">
<title>client/main.tsx&#45;&gt;node_modules/react/index.js</title>
<path fill="none" stroke="#000000" stroke-opacity="0.200000" d="M46.2,-1441.32C57.23,-1397.6 111.08,-1211.14 238,-1161.54 408.9,-1094.74 471.17,-1105.71 650.5,-1144.54 668.52,-1148.44 687.51,-1157.1 701.47,-1164.43"/>
<polygon fill="#000000" fill-opacity="0.200000" stroke="#000000" stroke-opacity="0.200000" points="700.84,-1166.47 707.12,-1167.47 702.83,-1162.78 700.84,-1166.47"/>
</g>
<!-- client/main.tsx&#45;&gt;client/ThemedApp.tsx -->
<g id="edge27" class="edge">
<title>client/main.tsx&#45;&gt;client/ThemedApp.tsx</title>
<path fill="none" stroke="#000000" stroke-width="2" stroke-opacity="0.200000" d="M70.41,-1450.54C72.4,-1450.54 74.43,-1450.54 76.5,-1450.54"/>
<polygon fill="#000000" fill-opacity="0.200000" stroke="#000000" stroke-width="2" stroke-opacity="0.200000" points="76.74,-1452.64 82.74,-1450.54 76.74,-1448.44 76.74,-1452.64"/>
</g>
<!-- node_modules/react&#45;dom/index.js -->
<g id="node23" class="node">
<title>node_modules/react&#45;dom/index.js</title>
<g id="a_node23"><a xlink:href="node_modules/react-dom/index.js" xlink:title="index.js">
<polygon fill="#c40b0a" fill-opacity="0.101961" stroke="black" points="750.5,-971.54 749,-973.54 738.5,-973.54 737,-971.54 696.5,-971.54 696.5,-953.54 750.5,-953.54 750.5,-971.54"/>
<text text-anchor="middle" x="723.5" y="-960.34" font-family="Helvetica,sans-Serif" font-size="9.00" fill="#c40b0a">index.js</text>
</a>
</g>
</g>
<!-- client/main.tsx&#45;&gt;node_modules/react&#45;dom/index.js -->
<g id="edge29" class="edge">
<title>client/main.tsx&#45;&gt;node_modules/react&#45;dom/index.js</title>
<path fill="none" stroke="#000000" stroke-opacity="0.200000" d="M44.44,-1441.46C48.28,-1367.92 78.73,-872.54 202,-872.54 202,-872.54 202,-872.54 472.5,-872.54 552.39,-872.54 586.2,-850.13 650.5,-897.54 657.22,-902.49 653.23,-908.06 658.5,-914.54 670.35,-929.08 687.51,-941.64 701.08,-950.26"/>
<polygon fill="#000000" fill-opacity="0.200000" stroke="#000000" stroke-opacity="0.200000" points="700.07,-952.1 706.27,-953.48 702.28,-948.53 700.07,-952.1"/>
</g>
<!-- common/validation.ts&#45;&gt;data.ts -->
<g id="edge63" class="edge">
<title>common/validation.ts&#45;&gt;data.ts</title>
<path fill="none" stroke="#000000" stroke-width="2" stroke-opacity="0.200000" d="M756.22,-368.79C767.91,-370.55 780.3,-374.65 788.5,-383.54 804.65,-401.04 782.01,-417.63 796.5,-436.54 796.91,-437.07 797.34,-437.58 797.79,-438.07"/>
<polygon fill="#000000" fill-opacity="0.200000" stroke="#000000" stroke-width="2" stroke-opacity="0.200000" points="796.43,-439.67 802.35,-441.99 799.17,-436.49 796.43,-439.67"/>
</g>
<!-- crypto -->
<g id="node28" class="node">
<title>crypto</title>
<path fill="#ffffcc" stroke="grey" d="M614.5,-203.54C614.5,-203.54 572.5,-203.54 572.5,-203.54 569.5,-203.54 566.5,-200.54 566.5,-197.54 566.5,-197.54 566.5,-191.54 566.5,-191.54 566.5,-188.54 569.5,-185.54 572.5,-185.54 572.5,-185.54 614.5,-185.54 614.5,-185.54 617.5,-185.54 620.5,-188.54 620.5,-191.54 620.5,-191.54 620.5,-197.54 620.5,-197.54 620.5,-200.54 617.5,-203.54 614.5,-203.54"/>
<text text-anchor="middle" x="593.5" y="-192.34" font-family="Helvetica,sans-Serif" font-size="9.00" fill="grey">crypto</text>
</g>
<!-- functions/firebaseInterface.ts -->
<g id="node29" class="node">
<title>functions/firebaseInterface.ts</title>
<g id="a_node29"><a xlink:href="functions/firebaseInterface.ts" xlink:title="firebaseInterface.ts">
<path fill="#ddfeff" stroke="black" d="M635,-287.54C635,-287.54 552,-287.54 552,-287.54 549,-287.54 546,-284.54 546,-281.54 546,-281.54 546,-275.54 546,-275.54 546,-272.54 549,-269.54 552,-269.54 552,-269.54 635,-269.54 635,-269.54 638,-269.54 641,-272.54 641,-275.54 641,-275.54 641,-281.54 641,-281.54 641,-284.54 638,-287.54 635,-287.54"/>
<text text-anchor="middle" x="593.5" y="-276.34" font-family="Helvetica,sans-Serif" font-size="9.00">firebaseInterface.ts</text>
</a>
</g>
</g>
<!-- functions/firebaseInterface.ts&#45;&gt;common/nowMode.ts -->
<g id="edge64" class="edge">
<title>functions/firebaseInterface.ts&#45;&gt;common/nowMode.ts</title>
<path fill="none" stroke="#000000" stroke-width="2" stroke-opacity="0.200000" d="M605.93,-269.41C618.12,-260.31 638.42,-246.92 658.5,-241.54 714.3,-226.57 741.91,-207.36 788.5,-241.54 824.22,-267.74 828.88,-325.88 828.96,-353.46"/>
<polygon fill="#000000" fill-opacity="0.200000" stroke="#000000" stroke-width="2" stroke-opacity="0.200000" points="826.86,-353.45 828.91,-359.47 831.06,-353.49 826.86,-353.45"/>
</g>
<!-- functions/mimeType.ts -->
<g id="node30" class="node">
<title>functions/mimeType.ts</title>
<g id="a_node30"><a xlink:href="functions/mimeType.ts" xlink:title="mimeType.ts">
<path fill="#ddfeff" stroke="black" d="M752.5,-265.54C752.5,-265.54 694.5,-265.54 694.5,-265.54 691.5,-265.54 688.5,-262.54 688.5,-259.54 688.5,-259.54 688.5,-253.54 688.5,-253.54 688.5,-250.54 691.5,-247.54 694.5,-247.54 694.5,-247.54 752.5,-247.54 752.5,-247.54 755.5,-247.54 758.5,-250.54 758.5,-253.54 758.5,-253.54 758.5,-259.54 758.5,-259.54 758.5,-262.54 755.5,-265.54 752.5,-265.54"/>
<text text-anchor="middle" x="723.5" y="-254.34" font-family="Helvetica,sans-Serif" font-size="9.00">mimeType.ts</text>
</a>
</g>
</g>
<!-- functions/firebaseInterface.ts&#45;&gt;functions/mimeType.ts -->
<g id="edge65" class="edge">
<title>functions/firebaseInterface.ts&#45;&gt;functions/mimeType.ts</title>
<path fill="none" stroke="#000000" stroke-width="2" stroke-opacity="0.200000" d="M641.07,-270.53C654.46,-268.23 668.96,-265.74 681.95,-263.51"/>
<polygon fill="#000000" fill-opacity="0.200000" stroke="#000000" stroke-width="2" stroke-opacity="0.200000" points="682.64,-265.52 688.2,-262.43 681.93,-261.38 682.64,-265.52"/>
</g>
<!-- node_modules/firebase&#45;admin/lib/index.js -->
<g id="node31" class="node">
<title>node_modules/firebase&#45;admin/lib/index.js</title>
<g id="a_node31"><a xlink:href="node_modules/firebase-admin/lib/index.js" xlink:title="index.js">
<polygon fill="#c40b0a" fill-opacity="0.101961" stroke="black" points="750.5,-791.54 749,-793.54 738.5,-793.54 737,-791.54 696.5,-791.54 696.5,-773.54 750.5,-773.54 750.5,-791.54"/>
<text text-anchor="middle" x="723.5" y="-780.34" font-family="Helvetica,sans-Serif" font-size="9.00" fill="#c40b0a">index.js</text>
</a>
</g>
</g>
<!-- functions/firebaseInterface.ts&#45;&gt;node_modules/firebase&#45;admin/lib/index.js -->
<g id="edge66" class="edge">
<title>functions/firebaseInterface.ts&#45;&gt;node_modules/firebase&#45;admin/lib/index.js</title>
<path fill="none" stroke="#000000" stroke-opacity="0.200000" d="M594.96,-287.86C597.87,-344.88 615.15,-646.59 658.5,-726.54 668.47,-744.91 686.99,-760.1 701.55,-769.99"/>
<polygon fill="#000000" fill-opacity="0.200000" stroke="#000000" stroke-opacity="0.200000" points="700.55,-771.85 706.72,-773.4 702.86,-768.34 700.55,-771.85"/>
</g>
<!-- node_modules/firebase&#45;functions/lib/index.js -->
<g id="node32" class="node">
<title>node_modules/firebase&#45;functions/lib/index.js</title>
<g id="a_node32"><a xlink:href="node_modules/firebase-functions/lib/index.js" xlink:title="index.js">
<polygon fill="#c40b0a" fill-opacity="0.101961" stroke="black" points="750.5,-697.54 749,-699.54 738.5,-699.54 737,-697.54 696.5,-697.54 696.5,-679.54 750.5,-679.54 750.5,-697.54"/>
<text text-anchor="middle" x="723.5" y="-686.34" font-family="Helvetica,sans-Serif" font-size="9.00" fill="#c40b0a">index.js</text>
</a>
</g>
</g>
<!-- functions/firebaseInterface.ts&#45;&gt;node_modules/firebase&#45;functions/lib/index.js -->
<g id="edge67" class="edge">
<title>functions/firebaseInterface.ts&#45;&gt;node_modules/firebase&#45;functions/lib/index.js</title>
<path fill="none" stroke="#000000" stroke-opacity="0.200000" d="M594.91,-287.6C597.39,-339.36 611.96,-597.27 658.5,-658.54 666.41,-668.95 678.82,-675.89 690.62,-680.45"/>
<polygon fill="#000000" fill-opacity="0.200000" stroke="#000000" stroke-opacity="0.200000" points="689.99,-682.45 696.34,-682.5 691.4,-678.5 689.99,-682.45"/>
</g>
<!-- node_modules/fs&#45;extra/lib/index.js -->
<g id="node33" class="node">
<title>node_modules/fs&#45;extra/lib/index.js</title>
<g id="a_node33"><a xlink:href="node_modules/fs-extra/lib/index.js" xlink:title="index.js">
<polygon fill="#c40b0a" fill-opacity="0.101961" stroke="black" points="750.5,-885.54 749,-887.54 738.5,-887.54 737,-885.54 696.5,-885.54 696.5,-867.54 750.5,-867.54 750.5,-885.54"/>
<text text-anchor="middle" x="723.5" y="-874.34" font-family="Helvetica,sans-Serif" font-size="9.00" fill="#c40b0a">index.js</text>
</a>
</g>
</g>
<!-- functions/firebaseInterface.ts&#45;&gt;node_modules/fs&#45;extra/lib/index.js -->
<g id="edge68" class="edge">
<title>functions/firebaseInterface.ts&#45;&gt;node_modules/fs&#45;extra/lib/index.js</title>
<path fill="none" stroke="#000000" stroke-opacity="0.200000" d="M594.69,-287.68C596.15,-350.83 606.84,-722.45 658.5,-820.54 668.24,-839.03 686.79,-854.2 701.42,-864.07"/>
<polygon fill="#000000" fill-opacity="0.200000" stroke="#000000" stroke-opacity="0.200000" points="700.44,-865.93 706.61,-867.46 702.73,-862.42 700.44,-865.93"/>
</g>
<!-- functions/lib.ts -->
<g id="node34" class="node">
<title>functions/lib.ts</title>
<g id="a_node34"><a xlink:href="functions/lib.ts" xlink:title="lib.ts">
<path fill="#ddfeff" stroke="black" d="M492.5,-259.54C492.5,-259.54 450.5,-259.54 450.5,-259.54 447.5,-259.54 444.5,-256.54 444.5,-253.54 444.5,-253.54 444.5,-247.54 444.5,-247.54 444.5,-244.54 447.5,-241.54 450.5,-241.54 450.5,-241.54 492.5,-241.54 492.5,-241.54 495.5,-241.54 498.5,-244.54 498.5,-247.54 498.5,-247.54 498.5,-253.54 498.5,-253.54 498.5,-256.54 495.5,-259.54 492.5,-259.54"/>
<text text-anchor="middle" x="471.5" y="-248.34" font-family="Helvetica,sans-Serif" font-size="9.00">lib.ts</text>
</a>
</g>
</g>
<!-- functions/lib.ts&#45;&gt;data.ts -->
<g id="edge70" class="edge">
<title>functions/lib.ts&#45;&gt;data.ts</title>
<path fill="none" stroke="#000000" stroke-width="2" stroke-opacity="0.200000" d="M498.79,-245.26C567.08,-232.22 747.62,-202.3 788.5,-241.54 804.14,-256.55 784.26,-418.64 796.5,-436.54 796.89,-437.11 797.32,-437.66 797.76,-438.19"/>
<polygon fill="#000000" fill-opacity="0.200000" stroke="#000000" stroke-width="2" stroke-opacity="0.200000" points="796.54,-439.92 802.41,-442.38 799.36,-436.8 796.54,-439.92"/>
</g>
<!-- functions/lib.ts&#45;&gt;common/url.ts -->
<g id="edge69" class="edge">
<title>functions/lib.ts&#45;&gt;common/url.ts</title>
<path fill="none" stroke="#000000" stroke-width="2" stroke-opacity="0.200000" d="M482.11,-259.56C508.24,-283.59 583.65,-349.62 658.5,-383.54 668.41,-388.03 679.81,-391.25 690.21,-393.53"/>
<polygon fill="#000000" fill-opacity="0.200000" stroke="#000000" stroke-width="2" stroke-opacity="0.200000" points="689.91,-395.61 696.21,-394.77 690.76,-391.5 689.91,-395.61"/>
</g>
<!-- functions/lib.ts&#45;&gt;crypto -->
<g id="edge74" class="edge">
<title>functions/lib.ts&#45;&gt;crypto</title>
<path fill="none" stroke="#000000" stroke-dasharray="5,2" stroke-opacity="0.200000" d="M485.75,-241.46C498.38,-233.12 518.12,-220.82 536.5,-212.54 544.07,-209.13 552.47,-206.07 560.43,-203.48"/>
<polygon fill="#000000" fill-opacity="0.200000" stroke="#000000" stroke-opacity="0.200000" points="561.31,-205.4 566.4,-201.59 560.04,-201.4 561.31,-205.4"/>
</g>
<!-- functions/lib.ts&#45;&gt;functions/firebaseInterface.ts -->
<g id="edge71" class="edge">
<title>functions/lib.ts&#45;&gt;functions/firebaseInterface.ts</title>
<path fill="none" stroke="#000000" stroke-width="2" stroke-opacity="0.200000" d="M498.54,-256.61C512.9,-259.96 531.14,-264.22 547.72,-268.09"/>
<polygon fill="#000000" fill-opacity="0.200000" stroke="#000000" stroke-width="2" stroke-opacity="0.200000" points="547.42,-270.17 553.74,-269.49 548.38,-266.08 547.42,-270.17"/>
</g>
<!-- functions/lib.ts&#45;&gt;functions/mimeType.ts -->
<g id="edge72" class="edge">
<title>functions/lib.ts&#45;&gt;functions/mimeType.ts</title>
<path fill="none" stroke="#000000" stroke-width="2" stroke-opacity="0.200000" d="M498.75,-250.47C533.48,-250.46 596.6,-250.74 650.5,-252.54 660.85,-252.88 672.04,-253.42 682.43,-254"/>
<polygon fill="#000000" fill-opacity="0.200000" stroke="#000000" stroke-width="2" stroke-opacity="0.200000" points="682.34,-256.09 688.45,-254.33 682.58,-251.9 682.34,-256.09"/>
</g>
<!-- node_modules/axios/index.js -->
<g id="node35" class="node">
<title>node_modules/axios/index.js</title>
<g id="a_node35"><a xlink:href="node_modules/axios/index.js" xlink:title="index.js">
<polygon fill="#c40b0a" fill-opacity="0.101961" stroke="black" points="750.5,-629.54 749,-631.54 738.5,-631.54 737,-629.54 696.5,-629.54 696.5,-611.54 750.5,-611.54 750.5,-629.54"/>
<text text-anchor="middle" x="723.5" y="-618.34" font-family="Helvetica,sans-Serif" font-size="9.00" fill="#c40b0a">index.js</text>
</a>
</g>
</g>
<!-- functions/lib.ts&#45;&gt;node_modules/axios/index.js -->
<g id="edge73" class="edge">
<title>functions/lib.ts&#45;&gt;node_modules/axios/index.js</title>
<path fill="none" stroke="#000000" stroke-opacity="0.200000" d="M477.32,-241.37C486.39,-225.25 507.69,-192.35 536.5,-179.54 582.79,-158.94 614.31,-144.08 650.5,-179.54 666.1,-194.82 648.54,-553.1 658.5,-572.54 666.61,-588.36 682.61,-600.36 696.59,-608.4"/>
<polygon fill="#000000" fill-opacity="0.200000" stroke="#000000" stroke-opacity="0.200000" points="695.75,-610.34 702.02,-611.4 697.78,-606.66 695.75,-610.34"/>
</g>
<!-- node_modules/jimp/dist/index.js -->
<g id="node36" class="node">
<title>node_modules/jimp/dist/index.js</title>
<g id="a_node36"><a xlink:href="node_modules/jimp/dist/index.js" xlink:title="index.js">
<polygon fill="#c40b0a" fill-opacity="0.101961" stroke="black" points="750.5,-543.54 749,-545.54 738.5,-545.54 737,-543.54 696.5,-543.54 696.5,-525.54 750.5,-525.54 750.5,-543.54"/>
<text text-anchor="middle" x="723.5" y="-532.34" font-family="Helvetica,sans-Serif" font-size="9.00" fill="#c40b0a">index.js</text>
</a>
</g>
</g>
<!-- functions/lib.ts&#45;&gt;node_modules/jimp/dist/index.js -->
<g id="edge75" class="edge">
<title>functions/lib.ts&#45;&gt;node_modules/jimp/dist/index.js</title>
<path fill="none" stroke="#000000" stroke-opacity="0.200000" d="M474.1,-241.46C478.77,-218.01 494.79,-155.56 536.5,-130.54 579.95,-104.47 614.29,-95.09 650.5,-130.54 665.35,-145.07 647.16,-487.12 658.5,-504.54 665.75,-515.67 678.31,-522.76 690.4,-527.22"/>
<polygon fill="#000000" fill-opacity="0.200000" stroke="#000000" stroke-opacity="0.200000" points="689.92,-529.27 696.27,-529.21 691.27,-525.3 689.92,-529.27"/>
</g>
<!-- node_modules/jsonwebtoken/index.js -->
<g id="node37" class="node">
<title>node_modules/jsonwebtoken/index.js</title>
<g id="a_node37"><a xlink:href="node_modules/jsonwebtoken/index.js" xlink:title="index.js">
<polygon fill="#c40b0a" fill-opacity="0.101961" stroke="black" points="750.5,-475.54 749,-477.54 738.5,-477.54 737,-475.54 696.5,-475.54 696.5,-457.54 750.5,-457.54 750.5,-475.54"/>
<text text-anchor="middle" x="723.5" y="-464.34" font-family="Helvetica,sans-Serif" font-size="9.00" fill="#c40b0a">index.js</text>
</a>
</g>
</g>
<!-- functions/lib.ts&#45;&gt;node_modules/jsonwebtoken/index.js -->
<g id="edge76" class="edge">
<title>functions/lib.ts&#45;&gt;node_modules/jsonwebtoken/index.js</title>
<path fill="none" stroke="#000000" stroke-opacity="0.200000" d="M473.24,-241.17C475.95,-214.21 487.85,-136.33 536.5,-104.54 578.91,-76.82 614.24,-69.14 650.5,-104.54 663.7,-117.42 648.42,-421.09 658.5,-436.54 665.76,-447.66 678.33,-454.74 690.42,-459.21"/>
<polygon fill="#000000" fill-opacity="0.200000" stroke="#000000" stroke-opacity="0.200000" points="689.93,-461.26 696.29,-461.2 691.28,-457.29 689.93,-461.26"/>
</g>
<!-- functions/main.ts -->
<g id="node38" class="node">
<title>functions/main.ts</title>
<g id="a_node38"><a xlink:href="functions/main.ts" xlink:title="main.ts">
<path fill="#ddfeff" stroke="black" d="M395,-259.54C395,-259.54 353,-259.54 353,-259.54 350,-259.54 347,-256.54 347,-253.54 347,-253.54 347,-247.54 347,-247.54 347,-244.54 350,-241.54 353,-241.54 353,-241.54 395,-241.54 395,-241.54 398,-241.54 401,-244.54 401,-247.54 401,-247.54 401,-253.54 401,-253.54 401,-256.54 398,-259.54 395,-259.54"/>
<text text-anchor="middle" x="374" y="-248.34" font-family="Helvetica,sans-Serif" font-size="9.00">main.ts</text>
</a>
</g>
</g>
<!-- functions/main.ts&#45;&gt;common/apiCodec.ts -->
<g id="edge77" class="edge">
<title>functions/main.ts&#45;&gt;common/apiCodec.ts</title>
<path fill="none" stroke="#000000" stroke-width="2" stroke-opacity="0.200000" d="M375.36,-241.34C376.94,-205.64 384.69,-76.99 414.5,-52.54 495.6,13.98 575.22,20.5 650.5,-52.54 671.56,-72.97 641.09,-292.91 658.5,-316.54 664.73,-325 674.42,-330.23 684.4,-333.46"/>
<polygon fill="#000000" fill-opacity="0.200000" stroke="#000000" stroke-width="2" stroke-opacity="0.200000" points="683.93,-335.51 690.27,-335.14 685.08,-331.47 683.93,-335.51"/>
</g>
<!-- functions/main.ts&#45;&gt;common/url.ts -->
<g id="edge78" class="edge">
<title>functions/main.ts&#45;&gt;common/url.ts</title>
<path fill="none" stroke="#000000" stroke-width="2" stroke-opacity="0.200000" d="M376.94,-241.29C381.1,-223.24 392.38,-182.8 414.5,-156.54 485.66,-72.04 571.37,-1.45 650.5,-78.54 662.64,-90.36 647.8,-370.39 658.5,-383.54 666.17,-392.96 678.53,-397.14 690.35,-398.8"/>
<polygon fill="#000000" fill-opacity="0.200000" stroke="#000000" stroke-width="2" stroke-opacity="0.200000" points="690.26,-400.91 696.45,-399.46 690.71,-396.73 690.26,-400.91"/>
</g>
<!-- functions/main.ts&#45;&gt;functions/firebaseInterface.ts -->
<g id="edge79" class="edge">
<title>functions/main.ts&#45;&gt;functions/firebaseInterface.ts</title>
<path fill="none" stroke="#000000" stroke-width="2" stroke-opacity="0.200000" d="M385.21,-259.64C392.73,-265.72 403.51,-273.18 414.5,-276.54 455.15,-288.96 503.5,-288.61 539.55,-285.63"/>
<polygon fill="#000000" fill-opacity="0.200000" stroke="#000000" stroke-width="2" stroke-opacity="0.200000" points="539.88,-287.71 545.67,-285.09 539.51,-283.53 539.88,-287.71"/>
</g>
<!-- functions/main.ts&#45;&gt;functions/mimeType.ts -->
<g id="edge81" class="edge">
<title>functions/main.ts&#45;&gt;functions/mimeType.ts</title>
<path fill="none" stroke="#000000" stroke-width="2" stroke-opacity="0.200000" d="M394.69,-259.62C400.89,-262.04 407.86,-264.32 414.5,-265.54 464.33,-274.68 478.21,-271.73 528.5,-265.54 532.14,-265.09 532.87,-264.05 536.5,-263.54 586.25,-256.46 644.19,-255.4 682.01,-255.65"/>
<polygon fill="#000000" fill-opacity="0.200000" stroke="#000000" stroke-width="2" stroke-opacity="0.200000" points="682.35,-257.76 688.37,-255.71 682.39,-253.56 682.35,-257.76"/>
</g>
<!-- functions/main.ts&#45;&gt;node_modules/firebase&#45;functions/lib/index.js -->
<g id="edge82" class="edge">
<title>functions/main.ts&#45;&gt;node_modules/firebase&#45;functions/lib/index.js</title>
<path fill="none" stroke="#000000" stroke-opacity="0.200000" d="M386.33,-241.32C427.93,-208.61 573.73,-104.04 650.5,-179.54 669.48,-198.2 644.04,-636.2 658.5,-658.54 665.72,-669.69 678.28,-676.78 690.38,-681.24"/>
<polygon fill="#000000" fill-opacity="0.200000" stroke="#000000" stroke-opacity="0.200000" points="689.89,-683.29 696.25,-683.23 691.24,-679.31 689.89,-683.29"/>
</g>
<!-- functions/main.ts&#45;&gt;functions/lib.ts -->
<g id="edge80" class="edge">
<title>functions/main.ts&#45;&gt;functions/lib.ts</title>
<path fill="none" stroke="#000000" stroke-width="2" stroke-opacity="0.200000" d="M401.1,-250.54C412.57,-250.54 426.16,-250.54 438.26,-250.54"/>
<polygon fill="#000000" fill-opacity="0.200000" stroke="#000000" stroke-width="2" stroke-opacity="0.200000" points="438.44,-252.64 444.44,-250.54 438.44,-248.44 438.44,-252.64"/>
</g>
</g>
</svg>
